<?xml version="1.0" standalone="no"?><!DOCTYPE svg PUBLIC "-//W3C//DTD SVG 1.1//EN" "http://www.w3.org/Graphics/SVG/1.1/DTD/svg11.dtd"><svg height="1024" node-id="1" sillyvg="true" template-height="1024" template-width="1024" version="1.1" viewBox="0 0 1024 1024" width="1024" xmlns="http://www.w3.org/2000/svg" xmlns:xlink="http://www.w3.org/1999/xlink"><defs node-id="60"><linearGradient gradientUnits="objectBoundingBox" id="未命名的渐变_185" node-id="8" spreadMethod="pad" x1="386.45" x2="362.24" y1="430.4" y2="487.58"><stop offset="0" stop-color="#45a3fd"></stop><stop offset="0.52" stop-color="#0089ff"></stop><stop offset="1" stop-color="#0079f7"></stop></linearGradient><linearGradient gradientUnits="objectBoundingBox" id="未命名的渐变_203" node-id="12" spreadMethod="pad" x1="364.16" x2="364.16" y1="682.43" y2="720.32"><stop offset="0.01" stop-color="#047cf8"></stop><stop offset="1" stop-color="#0070f3"></stop></linearGradient><linearGradient gradientUnits="objectBoundingBox" id="未命名的渐变_137" node-id="15" spreadMethod="pad" x1="1460.1" x2="1472.3" y1="6089.46" y2="6119.06"><stop offset="0.01" stop-color="#51a6f9"></stop><stop offset="1" stop-color="#0070f3"></stop></linearGradient><linearGradient gradientUnits="objectBoundingBox" id="未命名的渐变_137-2" node-id="18" spreadMethod="pad" x1="110.86" x2="2108.58" y1="54.04" y2="872.77"><stop offset="0.01" stop-color="#51a6f9"></stop><stop offset="1" stop-color="#0070f3"></stop></linearGradient><linearGradient gradientUnits="objectBoundingBox" id="未命名的渐变_26" node-id="19" spreadMethod="pad" x1="404.97" x2="635.24" y1="424.21" y2="560.5"><stop offset="0" stop-color="#0089ff"></stop><stop offset="1" stop-color="#0070f3"></stop></linearGradient><linearGradient gradientUnits="objectBoundingBox" id="未命名的渐变_200-2" node-id="22" spreadMethod="pad" x1="663.22" x2="647.44" y1="257.14" y2="294.39"><stop offset="0" stop-color="#0070f3"></stop><stop offset="1" stop-color="#3b9ffd"></stop></linearGradient><linearGradient gradientUnits="objectBoundingBox" id="未命名的渐变_200" node-id="5" spreadMethod="pad" x1="591.32" x2="578.1" y1="319.64" y2="278.45"><stop offset="0" stop-color="#0070f3"></stop><stop offset="1" stop-color="#3b9ffd"></stop></linearGradient><linearGradient gradientUnits="objectBoundingBox" id="未命名的渐变_185-2" node-id="25" spreadMethod="pad" x1="516.85" x2="602.26" y1="250.66" y2="250.66"><stop offset="0" stop-color="#45a3fd"></stop><stop offset="0.52" stop-color="#0089ff"></stop><stop offset="1" stop-color="#0079f7"></stop></linearGradient><linearGradient gradientUnits="objectBoundingBox" id="未命名的渐变_26-2" node-id="26" spreadMethod="pad" x1="430.97" x2="620.59" y1="333.75" y2="333.75"><stop offset="0" stop-color="#0089ff"></stop><stop offset="1" stop-color="#0070f3"></stop></linearGradient><clipPath id="clip-path" node-id="23"><path d="M 569.10 275.10 L 584.40 286.50 L 586.80 289.00 L 588.90 291.80 L 590.80 295.00 L 592.50 298.70 L 594.00 303.30 L 595.00 308.50 L 595.60 314.40 L 595.60 322.10 L 582.90 312.90 L 583.00 305.20 L 582.40 299.30 L 581.30 294.10 L 579.80 289.50 L 578.20 285.80 L 576.30 282.60 L 574.10 279.80 L 571.70 277.30 L 569.10 275.10 Z" fill="#000000" fill-rule="nonzero" node-id="121" stroke="none" target-height="47" target-width="26.5" target-x="569.1" target-y="275.1"></path></clipPath></defs><path d="M 407.00 443.50 L 378.90 427.20 L 361.20 437.70 L 358.80 439.50 L 356.60 441.70 L 354.80 444.30 L 353.30 447.00 L 352.40 449.80 L 352.00 452.40 L 352.00 479.40 L 377.80 494.20 Z" fill="#0083ef" fill-rule="nonzero" node-id="125" stroke="none" target-height="67" target-width="55" target-x="352" target-y="427.2"></path><path d="M 407.00 443.50 L 378.90 427.20 L 361.20 437.70 L 358.80 439.50 L 356.60 441.70 L 354.80 444.30 L 353.30 447.00 L 352.40 449.80 L 352.00 452.40 L 352.00 479.40 L 377.80 494.20 Z" fill="url(#未命名的渐变_185)" fill-rule="nonzero" node-id="127" stroke="none" target-height="67" target-width="55" target-x="352" target-y="427.2"></path><path d="M 373.10 686.50 L 373.10 491.50 L 352.10 479.30 L 352.20 678.00 Z" fill="#047cf8" fill-rule="nonzero" node-id="129" stroke="none" target-height="207.20001" target-width="21" target-x="352.1" target-y="479.3"></path><path d="M 361.20 717.10 L 373.10 710.00 L 373.10 686.50 L 352.10 678.10 L 352.10 714.20 L 353.10 717.00 L 355.10 718.30 L 356.80 718.60 L 358.80 718.20 L 361.20 717.10 Z" fill="#0083ef" fill-rule="nonzero" node-id="131" stroke="none" target-height="40.5" target-width="21" target-x="352.1" target-y="678.1"></path><path d="M 373.10 724.20 L 373.10 686.50 L 352.10 678.10 L 352.10 714.20 L 353.00 716.80 L 354.20 718.00 L 376.30 729.40 L 376.30 729.10 L 375.00 728.50 L 374.00 727.50 L 373.30 726.10 L 373.10 724.20 Z" fill="url(#未命名的渐变_203)" fill-rule="nonzero" node-id="133" stroke="none" target-height="51.30005" target-width="24.199982" target-x="352.1" target-y="678.1"></path><path d="M 376.40 687.90 L 376.40 708.10 L 659.60 538.80 L 661.90 537.10 L 664.20 534.80 L 666.00 532.20 L 667.50 529.50 L 668.40 526.70 L 668.70 524.20 L 668.70 277.30 L 398.80 438.70 L 407.00 443.50 L 377.80 494.20 L 373.10 491.50 L 373.10 686.50 Z" fill="#0083ef" fill-rule="nonzero" node-id="135" stroke="none" target-height="430.8" target-width="295.6" target-x="373.1" target-y="277.3"></path><path d="M 373.10 686.50 L 373.10 710.00 L 376.40 708.10 L 376.40 687.90 L 373.10 686.50 Z" fill="#0083ef" fill-rule="nonzero" node-id="137" stroke="none" target-height="23.5" target-width="3.2999878" target-x="373.1" target-y="686.5"></path><path d="M 378.90 427.20 L 398.80 438.70 L 643.10 292.60 L 624.00 280.60 L 378.90 427.20 Z" fill="#3b9ffd" fill-rule="nonzero" node-id="139" stroke="none" target-height="158.1" target-width="264.19998" target-x="378.9" target-y="280.6"></path><path d="M 643.10 292.60 L 668.70 277.30 Z" fill="url(#未命名的渐变_137)" fill-rule="nonzero" node-id="141" stroke="none" target-height="15.300018" target-width="25.600037" target-x="643.1" target-y="277.3"></path><path d="M 687.30 269.30 L 686.00 268.80 L 684.30 268.90 L 680.60 270.30 L 643.10 292.60 L 646.10 294.50 Z" fill="url(#未命名的渐变_137-2)" fill-rule="nonzero" node-id="143" stroke="none" target-height="25.700012" target-width="44.200012" target-x="643.1" target-y="268.8"></path><path d="M 687.30 269.30 L 686.00 268.80 L 684.30 268.90 L 680.60 270.30 L 643.10 292.60 L 382.30 448.50 L 379.90 450.30 L 377.70 452.50 L 375.80 455.10 L 374.40 457.80 L 373.40 460.60 L 373.10 463.20 L 373.10 724.20 L 373.30 726.10 L 374.00 727.50 L 375.00 728.50 L 376.40 729.20 L 377.90 729.30 L 380.90 728.60 L 382.30 727.90 L 680.60 549.60 L 683.00 547.90 L 685.20 545.60 L 687.10 543.10 L 688.50 540.40 L 689.50 537.60 L 689.80 535.00 L 689.80 274.00 L 689.10 270.90 L 687.30 269.30 Z" fill="url(#未命名的渐变_26)" fill-rule="nonzero" node-id="145" stroke="none" target-height="460.5" target-width="316.69998" target-x="373.1" target-y="268.8"></path><path d="M 668.70 263.20 L 668.10 260.30 L 666.60 258.60 L 664.20 258.00 L 661.30 258.60 L 624.00 280.60 L 643.10 292.60 L 668.70 277.40 Z" fill="#0083ef" fill-rule="nonzero" node-id="147" stroke="none" target-height="34.600006" target-width="44.700012" target-x="624" target-y="258"></path><path d="M 666.50 258.50 L 665.10 258.00 L 663.40 258.00 L 661.60 258.40 L 659.60 259.40 L 624.00 280.60 L 643.10 292.60 L 680.60 270.30 L 684.30 268.90 L 686.00 268.90 L 687.30 269.30 Z" fill="url(#未命名的渐变_200-2)" fill-rule="nonzero" node-id="149" stroke="none" target-height="34.600006" target-width="63.299988" target-x="624" target-y="258"></path><g node-id="191"><path d="M 347.30 797.60 L 389.30 822.40 L 694.50 639.60 L 652.70 614.70 L 347.30 797.60 Z" fill="#0f82f8" fill-opacity="0.32" fill-rule="nonzero" group-id="1" node-id="153" stroke="none" target-height="207.70001" target-width="347.2" target-x="347.3" target-y="614.7"></path></g><g node-id="192"><path d="M 569.10 275.10 L 584.40 286.50 L 586.80 289.00 L 588.90 291.80 L 590.80 295.00 L 592.50 298.70 L 594.00 303.30 L 595.00 308.50 L 595.60 314.40 L 595.60 322.10 L 582.90 312.90 L 583.00 305.20 L 582.40 299.30 L 581.30 294.10 L 579.80 289.50 L 578.20 285.80 L 576.30 282.60 L 574.10 279.80 L 571.70 277.30 L 569.10 275.10 Z" fill="url(#未命名的渐变_200)" fill-rule="nonzero" group-id="2" node-id="158" stroke="none" target-height="47" target-width="26.5" target-x="569.1" target-y="275.1"></path><g node-id="193"><g clip-path="url(#clip-path)" group-id="2,3" node-id="162"><path d="M 595.60 322.10 L 582.90 312.90 L 583.00 305.20 L 582.40 299.30 L 581.30 294.10 L 579.80 289.50 L 578.20 285.80 L 576.30 282.60 L 574.10 279.80 L 571.70 277.30 L 569.10 275.10 L 584.40 286.50 L 586.80 289.00 L 588.90 291.80 L 590.80 295.00 L 592.50 298.70 L 594.00 303.30 L 595.00 308.50 L 595.60 314.40 L 595.60 322.10" fill="url(#未命名的渐变_200)" fill-rule="nonzero" group-id="2,3,4" node-id="164" stroke="none" target-height="47" target-width="26.5" target-x="569.1" target-y="275.1"></path></g></g></g><path d="M 534.60 259.70 L 543.60 255.40 L 553.60 251.70 L 562.80 249.30 L 571.90 248.20 L 580.20 248.20 L 587.80 249.40 L 591.90 250.60 L 595.70 252.20 L 602.30 256.00 L 587.00 245.10 L 581.20 242.20 L 574.90 240.30 L 570.30 239.40 L 565.90 239.00 L 559.30 239.10 L 549.40 240.40 L 538.40 243.40 L 526.90 248.00 L 516.90 253.30 L 529.60 262.50 L 534.00 260.00 Z" fill="url(#未命名的渐变_185-2)" fill-rule="nonzero" node-id="169" stroke="none" target-height="23.5" target-width="85.39996" target-x="516.9" target-y="239"></path><path d="M 524.80 265.30 L 529.50 262.50 L 516.90 253.30 L 507.00 259.40 L 497.50 266.40 L 491.40 271.40 L 481.50 280.40 L 474.00 288.00 L 467.80 294.90 L 462.30 301.50 L 453.40 313.30 L 444.10 327.50 L 436.50 341.10 L 433.00 348.20 L 426.40 364.10 L 423.30 373.40 L 421.40 380.10 L 419.40 389.00 L 418.10 396.80 L 417.20 408.60 L 431.70 419.40 L 432.20 411.70 L 434.20 398.00 L 435.80 390.80 L 438.40 381.50 L 441.60 372.00 L 445.50 362.30 L 449.80 352.80 L 454.60 343.40 L 459.90 334.10 L 465.70 325.00 L 471.80 316.20 L 478.40 307.60 L 485.30 299.40 L 492.60 291.60 L 500.10 284.30 L 508.00 277.40 L 516.10 271.10 L 524.40 265.50 Z" fill="#3b9ffd" fill-rule="nonzero" node-id="171" stroke="none" target-height="166.09999" target-width="112.29999" target-x="417.2" target-y="253.3"></path><path d="M 528.70 262.50 L 536.90 258.10 L 544.70 254.60 L 551.90 251.90 L 558.80 250.00 L 564.60 248.90 L 570.00 248.30 L 575.10 248.10 L 580.00 248.30 L 584.50 248.90 L 589.10 250.00 L 593.30 251.50 L 597.30 253.40 L 601.00 255.70 L 604.40 258.40 L 607.50 261.40 L 610.20 264.80 L 612.70 268.70 L 615.00 272.90 L 616.90 277.70 L 618.30 282.50 L 619.40 287.60 L 620.20 293.30 L 620.50 299.50 L 620.40 307.30 L 594.80 322.10 L 594.80 314.80 L 594.40 309.30 L 593.40 304.30 L 592.10 299.90 L 590.50 296.00 L 588.30 292.10 L 585.80 288.80 L 583.00 286.00 L 579.90 283.60 L 576.40 281.60 L 572.70 280.10 L 568.80 279.10 L 564.50 278.60 L 559.80 278.50 L 554.70 278.90 L 550.00 279.80 L 544.90 281.20 L 539.50 283.20 L 533.80 285.70 L 527.70 289.00 L 516.40 296.50 L 505.60 305.70 L 498.80 312.50 L 492.40 319.70 L 486.40 327.50 L 480.80 335.60 L 475.70 343.90 L 471.10 352.40 L 467.10 361.20 L 463.70 369.80 L 460.90 378.40 L 459.20 385.00 L 457.00 397.60 L 456.60 404.70 L 431.00 419.40 L 431.50 411.50 L 433.60 397.30 L 435.30 389.90 L 438.10 380.20 L 441.50 370.40 L 445.60 360.40 L 450.10 350.60 L 455.20 341.00 L 460.80 331.30 L 466.90 322.00 L 473.40 313.00 L 480.40 304.30 L 487.70 295.90 L 495.30 288.10 L 503.30 280.80 L 509.50 275.60 L 515.80 270.80 L 528.70 262.50 Z" fill="url(#未命名的渐变_26-2)" fill-rule="nonzero" node-id="173" stroke="none" target-height="171.29999" target-width="189.5" target-x="431" target-y="248.1"></path><path d="M 559.50 451.50 L 554.90 448.10 L 568.60 440.10 L 573.30 443.50 L 559.50 451.50 Z" fill="#e4e4e4" fill-rule="nonzero" node-id="175" stroke="none" target-height="11.399994" target-width="18.399963" target-x="554.9" target-y="440.1"></path><path d="M 490.40 491.40 L 485.70 488.00 L 499.50 480.00 L 504.20 483.50 L 490.40 491.40 Z" fill="#e4e4e4" fill-rule="nonzero" node-id="177" stroke="none" target-height="11.399994" target-width="18.5" target-x="485.7" target-y="480"></path><path d="M 558.30 459.40 L 559.50 451.50 L 554.80 448.10 L 554.30 452.70 L 553.10 457.70 L 551.30 462.70 L 549.30 467.10 L 545.90 473.00 L 543.00 477.10 L 539.90 480.90 L 535.10 485.80 L 531.60 488.90 L 527.70 491.70 L 523.00 494.20 L 518.60 495.90 L 515.40 496.60 L 510.90 496.70 L 507.90 496.00 L 504.90 494.50 L 511.50 498.90 L 513.80 499.70 L 516.40 500.00 L 520.00 499.90 L 524.00 498.90 L 527.60 497.50 L 532.30 494.90 L 536.20 492.20 L 540.90 488.10 L 544.80 483.90 L 547.80 480.10 L 550.50 476.40 L 553.80 470.60 L 555.90 466.10 L 558.30 459.40 Z" fill="#b6dcff" fill-rule="nonzero" node-id="179" stroke="none" target-height="51.899994" target-width="54.600006" target-x="504.9" target-y="448.1"></path><path d="M 490.40 491.40 L 485.70 488.00 L 485.70 492.00 L 486.20 495.90 L 487.90 501.80 L 488.80 503.80 L 491.10 507.10 L 494.00 509.70 L 498.60 513.10 L 495.00 509.60 L 492.30 504.60 L 491.20 500.90 L 490.50 496.50 L 490.40 491.40 Z" fill="#8bbdea" fill-rule="nonzero" node-id="181" stroke="none" target-height="25.099976" target-width="12.899994" target-x="485.7" target-y="488"></path><path d="M 559.50 451.50 L 573.30 443.50 L 572.90 448.20 L 572.00 453.10 L 570.70 458.30 L 566.80 468.30 L 564.30 473.40 L 558.40 483.20 L 555.00 487.90 L 547.40 496.60 L 539.00 504.20 L 530.10 510.30 L 525.70 512.60 L 521.50 514.40 L 517.70 515.60 L 514.10 516.30 L 510.40 516.50 L 507.10 516.30 L 504.10 515.70 L 501.30 514.70 L 498.80 513.20 L 496.60 511.30 L 494.60 509.00 L 493.00 506.20 L 491.80 503.20 L 490.90 499.80 L 490.40 495.90 L 490.40 491.40 L 504.20 483.40 L 504.30 487.40 L 504.90 490.70 L 506.00 493.40 L 507.40 495.60 L 509.20 497.50 L 511.40 498.90 L 513.90 499.80 L 516.90 500.20 L 519.80 500.00 L 523.00 499.30 L 526.70 498.00 L 530.70 496.00 L 538.10 490.80 L 541.60 487.60 L 547.90 480.30 L 550.60 476.40 L 553.10 472.20 L 556.90 463.90 L 558.30 459.60 L 559.10 455.40 L 559.50 451.50 Z" fill="#ffffff" fill-rule="nonzero" node-id="183" stroke="none" target-height="73" target-width="82.899994" target-x="490.4" target-y="443.5"></path><path d="M 379.30 555.10 L 373.10 550.50 L 373.10 533.20 L 379.30 537.70 L 379.30 555.10 Z" fill="#8bbdea" fill-rule="nonzero" node-id="185" stroke="none" target-height="21.899963" target-width="6.1999817" target-x="373.1" target-y="533.2"></path><path d="M 379.30 537.70 L 373.10 533.20 L 689.80 351.70 L 696.00 356.20 L 379.30 537.70 Z" fill="#b6dcff" fill-rule="nonzero" node-id="187" stroke="none" target-height="186" target-width="322.9" target-x="373.1" target-y="351.7"></path><path d="M 696.00 356.20 L 696.00 373.60 L 379.30 555.10 L 379.30 537.70 L 696.00 356.20 Z" fill="#ffffff" fill-rule="nonzero" node-id="189" stroke="none" target-height="198.89996" target-width="316.7" target-x="379.3" target-y="356.2"></path></svg>