<svg id="图层_1" data-name="图层 1" xmlns="http://www.w3.org/2000/svg" xmlns:xlink="http://www.w3.org/1999/xlink" viewBox="0 0 1024 1024"><defs><style>.cls-1{fill:url(#未命名的渐变_426);}.cls-2{fill:url(#未命名的渐变_26);}.cls-3{fill:url(#未命名的渐变_407);}.cls-4{fill:#0f82f8;opacity:0.32;}.cls-5{isolation:isolate;}.cls-6{clip-path:url(#clip-path);}.cls-7{fill:url(#未命名的渐变_426-3);}.cls-8{fill:url(#未命名的渐变_426-4);}.cls-9{fill:url(#未命名的渐变_426-5);}.cls-10{fill:url(#未命名的渐变_426-6);}.cls-11{fill:url(#未命名的渐变_426-7);}.cls-12{fill:url(#未命名的渐变_426-8);}.cls-13{fill:url(#未命名的渐变_426-9);}.cls-14{fill:url(#未命名的渐变_426-10);}.cls-15{fill:url(#未命名的渐变_426-11);}.cls-16{fill:url(#未命名的渐变_426-12);}.cls-17{fill:url(#未命名的渐变_426-13);}.cls-18{clip-path:url(#clip-path-2);}.cls-19{fill:url(#未命名的渐变_26-4);}.cls-20{fill:url(#未命名的渐变_414);}.cls-21{clip-path:url(#clip-path-3);}.cls-22{fill:url(#未命名的渐变_407-3);}.cls-23{fill:url(#未命名的渐变_407-4);}.cls-24{fill:url(#未命名的渐变_407-5);}.cls-25{fill:url(#未命名的渐变_407-6);}.cls-26{fill:url(#未命名的渐变_407-7);}.cls-27{fill:url(#未命名的渐变_407-8);}.cls-28{fill:url(#未命名的渐变_407-9);}.cls-29{fill:url(#未命名的渐变_407-10);}.cls-30{fill:url(#未命名的渐变_407-11);}.cls-31{fill:url(#未命名的渐变_407-12);}.cls-32{fill:url(#未命名的渐变_407-13);}.cls-33{fill:url(#未命名的渐变_407-14);}.cls-34{fill:url(#未命名的渐变_407-15);}.cls-35{fill:url(#未命名的渐变_407-16);}.cls-36{fill:url(#未命名的渐变_407-17);}.cls-37{fill:url(#未命名的渐变_407-18);}.cls-38{fill:url(#未命名的渐变_407-19);}.cls-39{fill:url(#未命名的渐变_433);}.cls-40{fill:#fff;}</style><linearGradient id="未命名的渐变_426" x1="320.3" y1="323.09" x2="828.66" y2="315.1" gradientUnits="userSpaceOnUse"><stop offset="0" stop-color="#0f82f8"/><stop offset="1" stop-color="#0f82f8"/></linearGradient><linearGradient id="未命名的渐变_26" x1="324.36" y1="652.45" x2="832.72" y2="644.47" gradientUnits="userSpaceOnUse"><stop offset="0" stop-color="#0089ff"/><stop offset="1" stop-color="#0070f3"/></linearGradient><linearGradient id="未命名的渐变_407" x1="403.12" y1="499.16" x2="417.76" y2="477.98" gradientUnits="userSpaceOnUse"><stop offset="0" stop-color="#0084fd"/><stop offset="0.52" stop-color="#63bbf9"/><stop offset="1" stop-color="#47a0f9"/></linearGradient><clipPath id="clip-path"><path class="cls-1" d="M602.94,239.79l213,154.88c-2.42-1.76-6.21-1.59-10.52.9l-213-154.88C596.73,238.19,600.52,238,602.94,239.79Z"/></clipPath><linearGradient id="未命名的渐变_426-3" x1="320.31" y1="323.45" x2="828.67" y2="315.46" xlink:href="#未命名的渐变_426"/><linearGradient id="未命名的渐变_426-4" x1="320.29" y1="322.61" x2="828.66" y2="314.62" xlink:href="#未命名的渐变_426"/><linearGradient id="未命名的渐变_426-5" x1="320.29" y1="322.29" x2="828.65" y2="314.31" xlink:href="#未命名的渐变_426"/><linearGradient id="未命名的渐变_426-6" x1="320.29" y1="322.15" x2="828.65" y2="314.17" xlink:href="#未命名的渐变_426"/><linearGradient id="未命名的渐变_426-7" x1="320.29" y1="322.11" x2="828.65" y2="314.13" xlink:href="#未命名的渐变_426"/><linearGradient id="未命名的渐变_426-8" x1="320.29" y1="322.16" x2="828.65" y2="314.17" xlink:href="#未命名的渐变_426"/><linearGradient id="未命名的渐变_426-9" x1="320.29" y1="322.26" x2="828.65" y2="314.28" xlink:href="#未命名的渐变_426"/><linearGradient id="未命名的渐变_426-10" x1="320.29" y1="322.43" x2="828.65" y2="314.44" xlink:href="#未命名的渐变_426"/><linearGradient id="未命名的渐变_426-11" x1="320.3" y1="322.64" x2="828.66" y2="314.66" xlink:href="#未命名的渐变_426"/><linearGradient id="未命名的渐变_426-12" x1="320.3" y1="322.92" x2="828.66" y2="314.94" xlink:href="#未命名的渐变_426"/><linearGradient id="未命名的渐变_426-13" x1="320.3" y1="323.21" x2="828.67" y2="315.22" xlink:href="#未命名的渐变_426"/><clipPath id="clip-path-2"><path class="cls-2" d="M508.65,732.3l-213-154.88c-1.85-1.34-2.89-3.81-2.76-7.22l213,154.88C505.76,728.49,506.81,731,508.65,732.3Z"/></clipPath><linearGradient id="未命名的渐变_26-4" x1="323.32" y1="576.71" x2="834.34" y2="568.68" xlink:href="#未命名的渐变_26"/><linearGradient id="未命名的渐变_414" x1="374.25" y1="455.59" x2="717.3" y2="350.91" gradientUnits="userSpaceOnUse"><stop offset="0" stop-color="#4da6f9"/><stop offset="1" stop-color="#0f82f8"/></linearGradient><clipPath id="clip-path-3"><path class="cls-3" d="M508.8,580.78l-213-154.88c.31-7.87,6.8-17.91,14.42-22.31l213,154.88C515.59,562.87,509.11,572.91,508.8,580.78Z"/></clipPath><linearGradient id="未命名的渐变_407-3" x1="403.93" y1="499.72" x2="418.57" y2="478.54" xlink:href="#未命名的渐变_407"/><linearGradient id="未命名的渐变_407-4" x1="403.08" y1="499.14" x2="417.72" y2="477.95" xlink:href="#未命名的渐变_407"/><linearGradient id="未命名的渐变_407-5" x1="402.68" y1="498.85" x2="417.31" y2="477.67" xlink:href="#未命名的渐变_407"/><linearGradient id="未命名的渐变_407-6" x1="402.39" y1="498.66" x2="417.03" y2="477.48" xlink:href="#未命名的渐变_407"/><linearGradient id="未命名的渐变_407-7" x1="402.18" y1="498.51" x2="416.82" y2="477.33" xlink:href="#未命名的渐变_407"/><linearGradient id="未命名的渐变_407-8" x1="402.02" y1="498.4" x2="416.66" y2="477.22" xlink:href="#未命名的渐变_407"/><linearGradient id="未命名的渐变_407-9" x1="401.9" y1="498.32" x2="416.53" y2="477.13" xlink:href="#未命名的渐变_407"/><linearGradient id="未命名的渐变_407-10" x1="401.81" y1="498.25" x2="416.45" y2="477.07" xlink:href="#未命名的渐变_407"/><linearGradient id="未命名的渐变_407-11" x1="401.75" y1="498.21" x2="416.39" y2="477.03" xlink:href="#未命名的渐变_407"/><linearGradient id="未命名的渐变_407-12" x1="401.72" y1="498.2" x2="416.36" y2="477.01" xlink:href="#未命名的渐变_407"/><linearGradient id="未命名的渐变_407-13" x1="401.73" y1="498.2" x2="416.36" y2="477.02" xlink:href="#未命名的渐变_407"/><linearGradient id="未命名的渐变_407-14" x1="401.76" y1="498.22" x2="416.4" y2="477.04" xlink:href="#未命名的渐变_407"/><linearGradient id="未命名的渐变_407-15" x1="401.83" y1="498.27" x2="416.47" y2="477.09" xlink:href="#未命名的渐变_407"/><linearGradient id="未命名的渐变_407-16" x1="401.95" y1="498.35" x2="416.59" y2="477.17" xlink:href="#未命名的渐变_407"/><linearGradient id="未命名的渐变_407-17" x1="402.13" y1="498.48" x2="416.77" y2="477.29" xlink:href="#未命名的渐变_407"/><linearGradient id="未命名的渐变_407-18" x1="402.41" y1="498.67" x2="417.05" y2="477.49" xlink:href="#未命名的渐变_407"/><linearGradient id="未命名的渐变_407-19" x1="403.22" y1="499.23" x2="417.86" y2="478.05" xlink:href="#未命名的渐变_407"/><linearGradient id="未命名的渐变_433" x1="508.36" y1="606" x2="818.16" y2="520.41" gradientUnits="userSpaceOnUse"><stop offset="0" stop-color="#4ca3f9"/><stop offset="1" stop-color="#0070f3"/></linearGradient></defs><title>NetWorker2.5D</title><path class="cls-4" d="M254.25,669.71c2.29-1.37,255.18,150.8,255.18,150.8l309.23-186.2-286-134.59Z"/><g class="cls-5"><path class="cls-1" d="M602.94,239.79l213,154.88c-2.42-1.76-6.21-1.59-10.52.9l-213-154.88C596.73,238.19,600.52,238,602.94,239.79Z"/><g class="cls-6"><g class="cls-5"><path class="cls-7" d="M805.37,395.56l-213-154.88a18,18,0,0,1,2.7-1.29l213,154.88a18,18,0,0,0-2.7,1.29"/><path class="cls-8" d="M808.08,394.27l-213-154.88a13.67,13.67,0,0,1,1.47-.46l213,154.88a13.67,13.67,0,0,0-1.47.46"/><path class="cls-9" d="M809.54,393.82l-213-154.88q.56-.14,1.09-.22l213,154.88q-.53.08-1.09.22"/><path class="cls-10" d="M810.64,393.6l-213-154.88q.47-.07.91-.09l213,154.88q-.45,0-.91.09"/><path class="cls-11" d="M811.55,393.51l-213-154.88q.41,0,.8,0l213,154.88q-.39,0-.8,0"/><path class="cls-12" d="M812.35,393.5l-213-154.88q.37,0,.73.06l213,154.88q-.36,0-.73-.06"/><path class="cls-13" d="M813.08,393.57l-213-154.88q.34,0,.67.12l213,154.88q-.33-.08-.67-.12"/><path class="cls-14" d="M813.75,393.69l-213-154.88a6.44,6.44,0,0,1,.62.18l213,154.88a6.44,6.44,0,0,0-.62-.18"/><path class="cls-15" d="M814.37,393.87,601.42,239a6,6,0,0,1,.58.24L815,394.11a6,6,0,0,0-.58-.24"/><path class="cls-16" d="M815,394.11,602,239.23a5.8,5.8,0,0,1,.55.3l213,154.88a5.8,5.8,0,0,0-.55-.3"/><path class="cls-17" d="M815.51,394.41l-213-154.88.39.26,213,154.88-.39-.26"/></g></g></g><g class="cls-5"><path class="cls-2" d="M508.65,732.3l-213-154.88c-1.85-1.34-2.89-3.81-2.76-7.22l213,154.88C505.76,728.49,506.81,731,508.65,732.3Z"/><g class="cls-18"><g class="cls-5"><path class="cls-2" d="M508.65,732.3l-213-154.88c-1.85-1.34-2.89-3.81-2.76-7.22l213,154.88c-.14,3.41.91,5.88,2.76,7.22"/></g></g></g><polygon class="cls-19" points="505.9 725.08 292.94 570.2 295.84 425.9 508.8 580.77 505.9 725.08"/><polygon class="cls-20" points="523.21 558.47 310.26 403.59 592.42 240.69 805.38 395.56 523.21 558.47"/><g class="cls-5"><path class="cls-3" d="M508.8,580.78l-213-154.88c.31-7.87,6.8-17.91,14.42-22.31l213,154.88C515.59,562.87,509.11,572.91,508.8,580.78Z"/><g class="cls-21"><g class="cls-5"><path class="cls-22" d="M508.8,580.78l-213-154.88a18.07,18.07,0,0,1,.43-3.2l213,154.88a18.07,18.07,0,0,0-.43,3.2"/><path class="cls-23" d="M509.23,577.58l-213-154.88q.19-.84.45-1.7l213,154.88q-.26.86-.45,1.7"/><path class="cls-24" d="M509.68,575.88,296.72,421q.2-.67.45-1.35l213,154.88q-.25.67-.45,1.35"/><path class="cls-25" d="M510.13,574.53l-213-154.88q.22-.6.47-1.2l213,154.88q-.25.6-.47,1.2"/><path class="cls-26" d="M510.6,573.34l-213-154.88q.23-.55.49-1.1l213,154.88q-.26.55-.49,1.1"/><path class="cls-27" d="M511.09,572.24l-213-154.88q.24-.52.51-1l213,154.88q-.27.52-.51,1"/><path class="cls-28" d="M511.6,571.2l-213-154.88q.26-.5.54-1l213,154.88q-.28.5-.54,1"/><path class="cls-29" d="M512.14,570.2l-213-154.88q.27-.49.57-1l213,154.88q-.29.48-.57,1"/><path class="cls-30" d="M512.7,569.22l-213-154.88q.29-.48.6-1l213,154.88q-.31.47-.6,1"/><path class="cls-31" d="M513.3,568.27l-213-154.88q.31-.48.63-.94l213,154.88q-.32.47-.63.94"/><path class="cls-32" d="M513.93,567.33,301,412.45q.33-.48.68-.94l213,154.88q-.35.47-.68.94"/><path class="cls-33" d="M514.61,566.39l-213-154.88q.36-.48.73-.95l213,154.88q-.37.47-.73.95"/><path class="cls-34" d="M515.34,565.44l-213-154.88q.39-.49.8-1l213,154.88q-.41.47-.8,1"/><path class="cls-35" d="M516.14,564.48l-213-154.88q.44-.51.9-1L517,563.48q-.46.49-.9,1"/><path class="cls-36" d="M517,563.48l-213-154.88q.53-.56,1.07-1.09l213,154.88q-.55.53-1.07,1.09"/><path class="cls-37" d="M518.12,562.38l-213-154.88q.7-.68,1.42-1.3l213,154.88q-.73.62-1.42,1.3"/><path class="cls-38" d="M519.54,561.09l-213-154.88a24.88,24.88,0,0,1,3.67-2.62l213,154.88a24.88,24.88,0,0,0-3.67,2.62"/></g></g></g><path class="cls-39" d="M512.53,733a5.76,5.76,0,0,1-4.28-1.68c-1.32-1.37-2-3.52-1.86-6.19l2.9-144.32c.31-7.73,6.66-17.55,14.17-21.88L805.63,396a13.19,13.19,0,0,1,6.39-2,5.77,5.77,0,0,1,4.29,1.68c1.32,1.37,2,3.51,1.86,6.19l-2.9,144.32c-.31,7.73-6.66,17.55-14.17,21.88L518.93,731A13.21,13.21,0,0,1,512.53,733Z"/><path class="cls-40" d="M812,394.5h0a5.28,5.28,0,0,1,3.92,1.52c1.22,1.27,1.82,3.29,1.72,5.84l-2.9,144.29c-.3,7.59-6.54,17.22-13.92,21.48L518.68,730.53a12.72,12.72,0,0,1-6.14,1.94,5.27,5.27,0,0,1-3.92-1.52c-1.22-1.27-1.82-3.29-1.72-5.84l2.9-144.29c.3-7.59,6.54-17.22,13.92-21.48L805.88,396.43A12.71,12.71,0,0,1,812,394.5m0-1a13.59,13.59,0,0,0-6.64,2.07L523.21,558.47c-7.62,4.4-14.1,14.44-14.42,22.31l-2.9,144.31c-.21,5.36,2.49,8.39,6.64,8.39a13.6,13.6,0,0,0,6.64-2.07L801.34,568.49c7.61-4.39,14.1-14.44,14.42-22.31l2.9-144.31c.21-5.36-2.49-8.39-6.64-8.38Z"/><polygon class="cls-40" points="590.72 560.18 589.57 588.99 509.26 635.36 509.85 606.54 590.72 560.18"/><polygon class="cls-40" points="815.12 503.19 814.89 511 508.86 686.19 508.54 678.38 815.12 503.19"/><path class="cls-40" d="M769,495.28c11-6.51,20-20.73,20-31.77s-8.95-14.71-20-8.21-20,20.73-20,31.77S758,501.79,769,495.28Z"/><path class="cls-40" d="M708.37,531.56c11-6.51,20-20.73,20-31.77s-8.95-14.71-20-8.21-20,20.73-20,31.77S697.33,538.07,708.37,531.56Z"/></svg>