<?xml version="1.0" standalone="no"?><!DOCTYPE svg PUBLIC "-//W3C//DTD SVG 1.1//EN" "http://www.w3.org/Graphics/SVG/1.1/DTD/svg11.dtd"><svg height="500" node-id="1" sillyvg="true" template-height="500" template-width="420" version="1.1" viewBox="0 0 420 500" width="420" xmlns="http://www.w3.org/2000/svg" xmlns:xlink="http://www.w3.org/1999/xlink"><defs node-id="112"><linearGradient gradientUnits="objectBoundingBox" id="Безымянный_градиент_15" node-id="5" spreadMethod="pad" x1="135.31" x2="413.18" y1="190.31" y2="190.31"><stop offset="0.21" stop-color="#ffffff" stop-opacity="0"></stop><stop offset="1" stop-color="#ffffff" stop-opacity="0.2"></stop></linearGradient></defs><g node-id="339"><g node-id="340"><g node-id="345"><path d="M 255.70 364.90 L 200.80 333.20 L 199.40 332.20 L 198.20 330.00 L 198.10 328.90 L 198.60 327.40 L 199.80 325.90 L 201.90 324.30 L 237.50 303.70 L 306.80 343.70 L 271.20 364.30 L 268.70 365.40 L 266.00 366.10 L 263.20 366.50 L 260.50 366.40 L 257.90 365.80 L 255.70 364.90 Z" fill="#d6d8e5" fill-opacity="0.4" fill-rule="nonzero" group-id="1,2,7" node-id="126" stroke="none" target-height="62.799988" target-width="108.69998" target-x="198.1" target-y="303.7"></path></g><path d="M 260.70 362.00 L 205.70 330.30 L 204.40 329.20 L 203.10 327.10 L 203.10 326.00 L 203.60 324.40 L 204.80 322.90 L 206.90 321.40 L 242.50 300.80 L 311.70 340.80 L 276.10 361.40 L 273.70 362.50 L 271.00 363.20 L 268.20 363.50 L 265.40 363.50 L 262.80 362.90 L 260.70 362.00 Z" fill="#b1b4c4" fill-rule="nonzero" group-id="1,2" node-id="129" stroke="none" target-height="62.700012" target-width="108.600006" target-x="203.1" target-y="300.8"></path><path d="M 311.70 340.80 L 311.70 338.70 L 308.50 340.60 L 311.70 340.80 Z" fill="#b1b4c4" fill-rule="nonzero" group-id="1,2" node-id="131" stroke="none" target-height="2.0999756" target-width="3.2000122" target-x="308.5" target-y="338.7"></path><path d="M 203.10 326.50 L 203.10 324.40 L 206.40 325.80 L 203.10 326.50 Z" fill="#b1b4c4" fill-rule="nonzero" group-id="1,2" node-id="133" stroke="none" target-height="2.100006" target-width="3.2999878" target-x="203.1" target-y="324.4"></path><path d="M 260.70 359.90 L 205.70 328.20 L 204.40 327.20 L 203.10 325.00 L 203.10 323.90 L 203.60 322.40 L 204.80 320.90 L 206.90 319.30 L 242.50 298.70 L 311.70 338.70 L 276.10 359.30 L 273.70 360.40 L 271.00 361.10 L 268.20 361.50 L 265.40 361.40 L 262.80 360.80 L 260.70 359.90 Z" fill="#d6d8e5" fill-rule="nonzero" group-id="1,2" node-id="135" stroke="none" target-height="62.799988" target-width="108.600006" target-x="203.1" target-y="298.7"></path><path d="M 242.60 298.80 L 234.10 270.40 L 304.10 310.60 L 311.70 338.70 L 242.60 298.80 Z" fill="#9ea1af" fill-rule="nonzero" group-id="1,2" node-id="137" stroke="none" target-height="68.30002" target-width="77.600006" target-x="234.1" target-y="270.4"></path><path d="M 309.70 339.90 L 311.70 338.70 L 308.70 336.30 Z" fill="#9ea1af" fill-rule="nonzero" group-id="1,2" node-id="139" stroke="none" target-height="3.600006" target-width="3" target-x="308.7" target-y="336.3"></path><path d="M 240.40 299.90 L 231.90 271.50 L 301.90 311.60 L 309.70 339.90 L 240.40 299.90 Z" fill="#b1b4c4" fill-rule="nonzero" group-id="1,2" node-id="141" stroke="none" target-height="68.399994" target-width="77.80002" target-x="231.9" target-y="271.5"></path><path d="M 412.80 385.50 L 141.70 228.90 L 139.90 227.60 L 138.20 225.70 L 135.80 220.90 L 135.10 218.30 L 134.80 215.80 L 134.80 6.00 L 135.10 3.50 L 135.80 1.80 L 136.80 0.70 L 138.90 -0.00 L 140.20 0.20 L 141.70 0.80 L 412.80 157.40 L 414.60 158.70 L 416.30 160.60 L 418.80 165.30 L 419.50 168.00 L 419.70 170.50 L 419.70 380.20 L 419.40 382.70 L 418.70 384.40 L 417.70 385.60 L 415.60 386.30 L 412.80 385.50 Z" fill="#b1b4c4" fill-rule="nonzero" group-id="1,2" node-id="143" stroke="none" target-height="386.3" target-width="284.90002" target-x="134.8" target-y="-0"></path><path d="M 414.20 387.60 L 417.20 385.90 L 415.90 377.00 L 414.20 387.60 Z" fill="#b1b4c4" fill-rule="nonzero" group-id="1,2" node-id="145" stroke="none" target-height="10.600006" target-width="3" target-x="414.2" target-y="377"></path><path d="M 134.30 2.10 L 137.30 0.40 L 141.60 2.80 L 137.00 3.50 L 134.30 2.10 Z" fill="#b1b4c4" fill-rule="nonzero" group-id="1,2" node-id="147" stroke="none" target-height="3.1" target-width="7.300003" target-x="134.3" target-y="0.4"></path><path d="M 410.40 386.90 L 139.20 230.40 L 137.40 229.00 L 135.80 227.10 L 133.30 222.40 L 132.60 219.80 L 132.30 217.20 L 132.30 7.50 L 132.60 5.00 L 133.30 3.30 L 134.40 2.10 L 136.40 1.40 L 137.70 1.60 L 139.20 2.30 L 410.40 158.80 L 412.10 160.10 L 413.80 162.10 L 416.30 166.80 L 417.00 169.40 L 417.20 172.00 L 417.20 381.70 L 416.90 384.20 L 416.20 385.90 L 415.20 387.00 L 413.10 387.70 L 410.40 386.90 Z" fill="#e4e7f2" fill-rule="nonzero" group-id="1,2" node-id="149" stroke="none" target-height="386.30002" target-width="284.90002" target-x="132.3" target-y="1.4"></path><path d="M 409.90 387.20 L 138.80 230.60 L 137.00 229.30 L 135.30 227.40 L 132.80 222.60 L 132.10 220.00 L 131.90 217.50 L 131.90 7.70 L 132.20 5.20 L 132.90 3.50 L 133.90 2.40 L 136.00 1.70 L 137.20 1.90 L 138.80 2.50 L 409.90 159.10 L 411.70 160.40 L 413.40 162.30 L 415.80 167.10 L 416.50 169.70 L 416.80 172.20 L 416.80 382.00 L 416.50 384.50 L 415.80 386.10 L 414.70 387.30 L 412.70 388.00 L 409.90 387.20 Z" fill="#d6d8e5" fill-rule="nonzero" group-id="1,2" node-id="151" stroke="none" target-height="386.3" target-width="284.9" target-x="131.9" target-y="1.7"></path><path d="M 413.00 374.40 L 135.30 214.10 L 135.50 8.60 L 135.70 7.20 L 136.40 6.40 L 137.80 6.30 L 138.80 6.70 L 409.90 163.20 L 411.20 164.30 L 412.20 165.70 L 413.20 168.90 Z" fill="#2b303f" fill-rule="nonzero" group-id="1,2" node-id="153" stroke="none" target-height="368.1" target-width="277.90002" target-x="135.3" target-y="6.3"></path><g node-id="346"><path d="M 413.00 374.40 L 135.30 214.10 L 135.50 8.60 L 135.70 7.20 L 136.40 6.40 L 137.80 6.30 L 138.80 6.70 L 409.90 163.20 L 411.20 164.30 L 412.20 165.70 L 413.20 168.90 Z" fill="url(#Безымянный_градиент_15)" fill-opacity="0.5" fill-rule="nonzero" group-id="1,2,8" node-id="157" stroke="none" target-height="368.1" target-width="277.90002" target-x="135.3" target-y="6.3"></path></g></g><g node-id="341"><path d="M 167.80 486.20 L 7.70 393.40 L 7.20 392.60 L 7.40 390.80 L 9.30 389.10 L 68.80 354.70 L 71.00 353.80 L 73.40 353.50 L 75.70 353.60 L 77.70 354.30 L 237.80 447.10 L 238.30 447.90 L 238.10 449.70 L 236.20 451.50 L 176.70 485.80 L 174.50 486.70 L 172.10 487.00 L 169.70 486.90 L 167.80 486.20 Z" fill="#d6d8e5" fill-opacity="0.4" fill-rule="nonzero" group-id="1,3" node-id="163" stroke="none" target-height="133.5" target-width="231.1" target-x="7.2" target-y="353.5"></path></g><path d="M 238.90 444.00 L 80.50 352.50 L 78.60 351.80 L 76.20 351.60 L 73.80 351.90 L 71.70 352.80 L 12.40 387.00 L 10.00 386.10 L 10.10 390.60 L 10.90 391.90 L 11.50 392.30 L 170.70 484.30 L 172.60 485.00 L 175.00 485.20 L 177.40 484.80 L 179.50 483.90 L 239.00 449.50 L 240.30 448.50 L 241.00 447.50 L 241.20 442.80 Z" fill="#b1b4c4" fill-rule="nonzero" group-id="1" node-id="166" stroke="none" target-height="133.6" target-width="231.2" target-x="10" target-y="351.6"></path><path d="M 170.70 480.50 L 10.50 387.70 L 10.10 386.90 L 10.30 385.10 L 12.20 383.40 L 71.70 349.00 L 73.80 348.10 L 76.20 347.80 L 78.60 347.90 L 80.50 348.60 L 240.60 441.40 L 241.10 442.20 L 240.90 444.00 L 239.00 445.70 L 179.50 480.10 L 177.40 481.00 L 175.00 481.40 L 172.60 481.20 L 170.70 480.50 Z" fill="#d6d8e5" fill-rule="nonzero" group-id="1" node-id="168" stroke="none" target-height="133.6" target-width="231" target-x="10.1" target-y="347.8"></path><path d="M 67.40 366.00 L 59.60 361.50 L 59.20 360.80 L 59.80 360.00 L 67.30 355.70 L 68.50 355.40 L 69.80 355.60 L 77.60 360.10 L 78.00 360.80 L 77.40 361.60 L 69.90 365.90 L 68.70 366.20 L 67.40 366.00 Z" fill="#2b303f" fill-rule="nonzero" group-id="1" node-id="170" stroke="none" target-height="10.800018" target-width="18.8" target-x="59.2" target-y="355.4"></path><path d="M 78.50 372.40 L 70.70 367.90 L 70.30 367.20 L 70.90 366.40 L 78.40 362.10 L 79.60 361.80 L 80.90 362.00 L 88.70 366.50 L 89.10 367.20 L 88.50 368.00 L 81.00 372.30 L 79.80 372.60 L 78.50 372.40 Z" fill="#2b303f" fill-rule="nonzero" group-id="1" node-id="172" stroke="none" target-height="10.800018" target-width="18.799995" target-x="70.3" target-y="361.8"></path><path d="M 89.80 378.90 L 81.90 374.40 L 81.50 373.70 L 82.10 372.90 L 89.60 368.60 L 90.80 368.30 L 92.10 368.50 L 99.90 373.00 L 100.30 373.70 L 99.70 374.40 L 92.30 378.80 L 91.00 379.10 L 89.80 378.90 Z" fill="#2b303f" fill-rule="nonzero" group-id="1" node-id="174" stroke="none" target-height="10.800018" target-width="18.800003" target-x="81.5" target-y="368.3"></path><path d="M 100.70 385.20 L 92.90 380.70 L 92.50 380.00 L 93.10 379.30 L 100.60 374.90 L 101.80 374.60 L 103.10 374.80 L 110.90 379.40 L 111.30 380.10 L 110.70 380.80 L 103.20 385.10 L 102.00 385.50 L 100.70 385.20 Z" fill="#2b303f" fill-rule="nonzero" group-id="1" node-id="176" stroke="none" target-height="10.899994" target-width="18.800003" target-x="92.5" target-y="374.6"></path><path d="M 111.80 391.60 L 104.00 387.10 L 103.60 386.40 L 104.20 385.70 L 111.70 381.30 L 112.90 381.00 L 114.20 381.20 L 122.00 385.80 L 122.40 386.50 L 121.80 387.20 L 114.30 391.50 L 113.10 391.90 L 111.80 391.60 Z" fill="#2b303f" fill-rule="nonzero" group-id="1" node-id="178" stroke="none" target-height="10.899994" target-width="18.800003" target-x="103.6" target-y="381"></path><path d="M 122.90 398.00 L 115.10 393.50 L 114.70 392.80 L 115.30 392.00 L 122.80 387.70 L 124.00 387.40 L 125.20 387.60 L 133.10 392.10 L 133.50 392.80 L 132.90 393.60 L 125.40 397.90 L 124.20 398.20 L 122.90 398.00 Z" fill="#2b303f" fill-rule="nonzero" group-id="1" node-id="180" stroke="none" target-height="10.800018" target-width="18.800003" target-x="114.7" target-y="387.4"></path><path d="M 134.00 404.40 L 126.20 399.90 L 125.70 399.20 L 126.30 398.50 L 133.80 394.20 L 135.10 393.80 L 136.30 394.10 L 144.20 398.60 L 144.60 399.30 L 144.00 400.00 L 136.50 404.30 L 135.30 404.70 L 134.00 404.40 Z" fill="#2b303f" fill-rule="nonzero" group-id="1" node-id="182" stroke="none" target-height="10.900024" target-width="18.90001" target-x="125.7" target-y="393.8"></path><path d="M 145.10 410.90 L 137.30 406.30 L 136.90 405.60 L 137.50 404.90 L 144.90 400.60 L 146.20 400.20 L 147.40 400.50 L 155.30 405.00 L 155.70 405.70 L 155.10 406.40 L 147.60 410.80 L 146.40 411.10 L 145.10 410.90 Z" fill="#2b303f" fill-rule="nonzero" group-id="1" node-id="184" stroke="none" target-height="10.899994" target-width="18.800003" target-x="136.9" target-y="400.2"></path><path d="M 156.20 417.30 L 148.40 412.70 L 148.00 412.00 L 148.60 411.30 L 156.00 407.00 L 157.20 406.70 L 158.50 406.90 L 166.30 411.40 L 166.80 412.10 L 166.20 412.90 L 158.70 417.20 L 157.50 417.50 L 156.20 417.30 Z" fill="#2b303f" fill-rule="nonzero" group-id="1" node-id="186" stroke="none" target-height="10.799988" target-width="18.800003" target-x="148" target-y="406.7"></path><path d="M 167.30 423.70 L 159.50 419.10 L 159.10 418.40 L 159.70 417.70 L 167.10 413.40 L 168.40 413.00 L 169.60 413.30 L 177.50 417.80 L 177.90 418.50 L 177.30 419.20 L 169.80 423.60 L 168.60 423.90 L 167.30 423.70 Z" fill="#2b303f" fill-rule="nonzero" group-id="1" node-id="188" stroke="none" target-height="10.899994" target-width="18.799988" target-x="159.1" target-y="413"></path><path d="M 178.40 430.10 L 170.60 425.50 L 170.20 424.90 L 170.80 424.10 L 178.20 419.80 L 179.50 419.40 L 180.70 419.70 L 188.60 424.20 L 189.00 424.90 L 188.40 425.70 L 180.90 430.00 L 179.70 430.30 L 178.40 430.10 Z" fill="#2b303f" fill-rule="nonzero" group-id="1" node-id="190" stroke="none" target-height="10.899994" target-width="18.800003" target-x="170.2" target-y="419.4"></path><path d="M 189.50 436.50 L 181.70 432.00 L 181.30 431.30 L 181.90 430.60 L 189.30 426.20 L 190.60 425.90 L 191.80 426.10 L 199.70 430.70 L 200.10 431.40 L 199.50 432.10 L 192.00 436.40 L 190.80 436.70 L 189.50 436.50 Z" fill="#2b303f" fill-rule="nonzero" group-id="1" node-id="192" stroke="none" target-height="10.800018" target-width="18.800003" target-x="181.3" target-y="425.9"></path><path d="M 200.60 442.90 L 192.80 438.40 L 192.30 437.70 L 193.00 436.90 L 200.40 432.60 L 201.70 432.30 L 202.90 432.50 L 210.80 437.00 L 211.20 437.70 L 210.60 438.50 L 203.10 442.80 L 201.90 443.10 L 200.60 442.90 Z" fill="#2b303f" fill-rule="nonzero" group-id="1" node-id="194" stroke="none" target-height="10.800018" target-width="18.899994" target-x="192.3" target-y="432.3"></path><path d="M 217.10 452.40 L 203.50 444.40 L 203.60 443.70 L 204.10 443.30 L 211.50 439.00 L 212.80 438.70 L 214.00 438.90 L 227.60 446.90 L 227.50 447.60 L 227.00 448.00 L 219.60 452.30 L 218.30 452.60 L 217.10 452.40 Z" fill="#2b303f" fill-rule="nonzero" group-id="1" node-id="196" stroke="none" target-height="13.899994" target-width="24.100006" target-x="203.5" target-y="438.7"></path><path d="M 73.10 381.70 L 65.30 377.20 L 64.90 376.50 L 65.50 375.80 L 73.00 371.40 L 74.20 371.10 L 75.50 371.30 L 83.30 375.90 L 83.80 376.50 L 83.20 377.30 L 75.70 381.60 L 74.40 382.00 L 73.10 381.70 Z" fill="#2b303f" fill-rule="nonzero" group-id="1" node-id="198" stroke="none" target-height="10.899994" target-width="18.900002" target-x="64.9" target-y="371.1"></path><path d="M 84.30 388.10 L 76.40 383.60 L 76.00 382.90 L 76.60 382.20 L 84.10 377.80 L 85.30 377.50 L 86.60 377.70 L 94.40 382.30 L 94.80 383.00 L 94.20 383.70 L 86.80 388.00 L 85.50 388.40 L 84.30 388.10 Z" fill="#2b303f" fill-rule="nonzero" group-id="1" node-id="200" stroke="none" target-height="10.899994" target-width="18.800003" target-x="76" target-y="377.5"></path><path d="M 95.40 394.60 L 87.50 390.00 L 87.10 389.30 L 87.70 388.60 L 95.20 384.20 L 96.40 383.90 L 97.70 384.10 L 105.50 388.70 L 106.00 389.40 L 105.40 390.10 L 97.90 394.40 L 96.60 394.80 L 95.40 394.60 Z" fill="#2b303f" fill-rule="nonzero" group-id="1" node-id="202" stroke="none" target-height="10.899994" target-width="18.900002" target-x="87.1" target-y="383.9"></path><path d="M 106.50 401.00 L 98.70 396.50 L 98.20 395.80 L 98.80 395.00 L 106.30 390.70 L 107.50 390.40 L 108.80 390.60 L 116.70 395.10 L 117.10 395.80 L 116.50 396.60 L 109.00 400.90 L 107.80 401.20 L 106.50 401.00 Z" fill="#2b303f" fill-rule="nonzero" group-id="1" node-id="204" stroke="none" target-height="10.800018" target-width="18.900002" target-x="98.2" target-y="390.4"></path><path d="M 117.50 407.30 L 109.70 402.80 L 109.30 402.10 L 109.90 401.40 L 117.30 397.10 L 118.60 396.70 L 119.80 396.90 L 127.70 401.50 L 128.10 402.20 L 127.50 402.90 L 120.00 407.20 L 118.80 407.60 L 117.50 407.30 Z" fill="#2b303f" fill-rule="nonzero" group-id="1" node-id="206" stroke="none" target-height="10.899994" target-width="18.800003" target-x="109.3" target-y="396.7"></path><path d="M 128.60 413.80 L 120.80 409.20 L 120.40 408.50 L 121.00 407.80 L 128.50 403.50 L 129.70 403.10 L 131.00 403.40 L 138.80 407.90 L 139.20 408.60 L 138.60 409.30 L 131.10 413.70 L 129.90 414.00 L 128.60 413.80 Z" fill="#2b303f" fill-rule="nonzero" group-id="1" node-id="208" stroke="none" target-height="10.899994" target-width="18.799995" target-x="120.4" target-y="403.1"></path><path d="M 139.80 420.20 L 131.90 415.70 L 131.50 415.00 L 132.10 414.20 L 139.60 409.90 L 140.80 409.50 L 142.10 409.80 L 149.90 414.30 L 150.30 415.00 L 149.70 415.70 L 142.30 420.10 L 141.00 420.40 L 139.80 420.20 Z" fill="#2b303f" fill-rule="nonzero" group-id="1" node-id="210" stroke="none" target-height="10.899994" target-width="18.800003" target-x="131.5" target-y="409.5"></path><path d="M 150.90 426.60 L 143.00 422.10 L 142.60 421.40 L 143.20 420.60 L 150.70 416.30 L 151.90 416.00 L 153.20 416.20 L 161.00 420.70 L 161.40 421.40 L 160.80 422.20 L 153.30 426.50 L 152.10 426.80 L 150.90 426.60 Z" fill="#2b303f" fill-rule="nonzero" group-id="1" node-id="212" stroke="none" target-height="10.799988" target-width="18.799988" target-x="142.6" target-y="416"></path><path d="M 162.00 433.00 L 154.20 428.50 L 153.70 427.80 L 154.30 427.00 L 161.80 422.70 L 163.10 422.40 L 164.30 422.60 L 172.20 427.10 L 172.60 427.80 L 172.00 428.60 L 164.50 432.90 L 163.30 433.20 L 162.00 433.00 Z" fill="#2b303f" fill-rule="nonzero" group-id="1" node-id="214" stroke="none" target-height="10.800018" target-width="18.90001" target-x="153.7" target-y="422.4"></path><path d="M 173.10 439.40 L 165.30 434.90 L 164.80 434.20 L 165.50 433.50 L 172.90 429.10 L 174.20 428.80 L 175.40 429.00 L 183.30 433.60 L 183.70 434.30 L 183.10 435.00 L 175.60 439.30 L 174.40 439.70 L 173.10 439.40 Z" fill="#2b303f" fill-rule="nonzero" group-id="1" node-id="216" stroke="none" target-height="10.900024" target-width="18.899994" target-x="164.8" target-y="428.8"></path><path d="M 184.20 445.80 L 176.40 441.30 L 176.00 440.60 L 176.60 439.90 L 184.10 435.60 L 185.30 435.20 L 186.50 435.50 L 194.40 440.00 L 194.80 440.70 L 194.20 441.40 L 186.70 445.70 L 185.50 446.10 L 184.20 445.80 Z" fill="#2b303f" fill-rule="nonzero" group-id="1" node-id="218" stroke="none" target-height="10.899994" target-width="18.800003" target-x="176" target-y="435.2"></path><path d="M 195.30 452.30 L 187.50 447.70 L 187.10 447.00 L 187.70 446.30 L 195.20 442.00 L 196.40 441.60 L 197.70 441.90 L 205.50 446.40 L 205.90 447.10 L 205.30 447.80 L 197.80 452.20 L 196.60 452.50 L 195.30 452.30 Z" fill="#2b303f" fill-rule="nonzero" group-id="1" node-id="220" stroke="none" target-height="10.899994" target-width="18.799988" target-x="187.1" target-y="441.6"></path><path d="M 62.00 375.30 L 48.50 367.30 L 48.50 366.60 L 49.00 366.20 L 56.50 361.90 L 57.70 361.60 L 59.00 361.80 L 72.50 369.80 L 72.40 370.50 L 72.00 370.90 L 64.50 375.20 L 63.30 375.50 L 62.00 375.30 Z" fill="#2b303f" fill-rule="nonzero" group-id="1" node-id="222" stroke="none" target-height="13.899994" target-width="24" target-x="48.5" target-y="361.6"></path><path d="M 216.50 452.80 L 208.70 448.30 L 207.50 448.00 L 206.40 448.30 L 198.10 453.10 L 198.10 453.90 L 199.10 454.50 L 199.50 455.30 L 190.40 460.80 L 190.20 461.30 L 190.70 461.90 L 195.70 464.80 L 196.90 465.10 L 198.00 464.80 L 216.60 454.10 L 217.00 453.40 L 216.50 452.80 Z" fill="#2b303f" fill-rule="nonzero" group-id="1" node-id="224" stroke="none" target-height="17.100006" target-width="26.800003" target-x="190.2" target-y="448"></path><path d="M 24.50 390.90 L 16.60 386.30 L 16.20 385.60 L 16.80 384.90 L 24.30 380.60 L 25.50 380.20 L 26.80 380.50 L 34.60 385.00 L 35.00 385.70 L 34.40 386.40 L 27.00 390.80 L 25.70 391.10 L 24.50 390.90 Z" fill="#2b303f" fill-rule="nonzero" group-id="1" node-id="226" stroke="none" target-height="10.899994" target-width="18.8" target-x="16.2" target-y="380.2"></path><path d="M 35.50 397.30 L 27.70 392.70 L 27.30 392.00 L 27.90 391.30 L 35.30 387.00 L 36.60 386.60 L 37.80 386.90 L 45.70 391.40 L 46.10 392.10 L 45.50 392.90 L 38.00 397.20 L 36.80 397.50 L 35.50 397.30 Z" fill="#2b303f" fill-rule="nonzero" group-id="1" node-id="228" stroke="none" target-height="10.899994" target-width="18.8" target-x="27.3" target-y="386.6"></path><path d="M 46.60 403.60 L 38.80 399.10 L 38.30 398.40 L 38.90 397.70 L 46.40 393.40 L 47.60 393.00 L 48.90 393.30 L 56.70 397.80 L 57.20 398.50 L 56.60 399.20 L 49.10 403.50 L 47.80 403.90 L 46.60 403.60 Z" fill="#2b303f" fill-rule="nonzero" group-id="1" node-id="230" stroke="none" target-height="10.899994" target-width="18.900002" target-x="38.3" target-y="393"></path><path d="M 140.80 458.10 L 133.00 453.50 L 132.60 452.80 L 133.20 452.10 L 140.70 447.80 L 141.90 447.40 L 143.20 447.70 L 151.00 452.20 L 151.40 452.90 L 150.80 453.60 L 143.30 458.00 L 142.10 458.30 L 140.80 458.10 Z" fill="#2b303f" fill-rule="nonzero" group-id="1" node-id="232" stroke="none" target-height="10.899994" target-width="18.799988" target-x="132.6" target-y="447.4"></path><path d="M 151.90 464.40 L 144.10 459.90 L 143.60 459.20 L 144.20 458.50 L 151.70 454.20 L 153.00 453.80 L 154.20 454.10 L 162.10 458.60 L 162.50 459.30 L 161.90 460.00 L 154.40 464.30 L 153.20 464.70 L 151.90 464.40 Z" fill="#2b303f" fill-rule="nonzero" group-id="1" node-id="234" stroke="none" target-height="10.900024" target-width="18.899994" target-x="143.6" target-y="453.8"></path><path d="M 163.00 470.80 L 155.20 466.30 L 154.70 465.60 L 155.30 464.90 L 162.80 460.60 L 164.10 460.20 L 165.30 460.40 L 173.20 465.00 L 173.60 465.70 L 173.00 466.40 L 165.50 470.70 L 164.30 471.10 L 163.00 470.80 Z" fill="#2b303f" fill-rule="nonzero" group-id="1" node-id="236" stroke="none" target-height="10.899994" target-width="18.90001" target-x="154.7" target-y="460.2"></path><path d="M 174.00 477.20 L 166.20 472.70 L 165.70 472.00 L 166.30 471.30 L 173.80 466.90 L 175.10 466.60 L 176.30 466.80 L 184.20 471.40 L 184.60 472.10 L 184.00 472.80 L 176.50 477.10 L 175.30 477.50 L 174.00 477.20 Z" fill="#2b303f" fill-rule="nonzero" group-id="1" node-id="238" stroke="none" target-height="10.899994" target-width="18.90001" target-x="165.7" target-y="466.6"></path><path d="M 60.50 411.70 L 49.80 405.50 L 49.40 404.80 L 50.00 404.10 L 57.50 399.70 L 58.70 399.40 L 60.00 399.60 L 70.70 405.80 L 71.10 406.50 L 70.50 407.30 L 63.00 411.60 L 61.80 411.90 L 60.50 411.70 Z" fill="#2b303f" fill-rule="nonzero" group-id="1" node-id="240" stroke="none" target-height="12.5" target-width="21.699997" target-x="49.4" target-y="399.4"></path><path d="M 129.80 451.70 L 119.10 445.50 L 118.60 444.80 L 119.30 444.10 L 126.70 439.70 L 128.00 439.40 L 129.20 439.60 L 139.90 445.80 L 140.30 446.50 L 139.70 447.20 L 132.30 451.60 L 131.00 451.90 L 129.80 451.70 Z" fill="#2b303f" fill-rule="nonzero" group-id="1" node-id="242" stroke="none" target-height="12.5" target-width="21.700005" target-x="118.6" target-y="439.4"></path><path d="M 115.80 443.60 L 63.70 413.50 L 63.30 412.80 L 63.90 412.10 L 71.40 407.80 L 72.60 407.40 L 73.90 407.70 L 126.00 437.80 L 126.40 438.50 L 125.80 439.20 L 118.30 443.50 L 117.10 443.90 L 115.80 443.60 Z" fill="#2b303f" fill-rule="nonzero" group-id="1" node-id="244" stroke="none" target-height="36.5" target-width="63.100002" target-x="63.3" target-y="407.4"></path><path d="M 65.40 389.70 L 57.60 385.10 L 57.10 384.40 L 57.80 383.70 L 65.20 379.40 L 66.50 379.00 L 67.70 379.30 L 75.60 383.80 L 76.00 384.50 L 75.40 385.20 L 67.90 389.60 L 66.70 389.90 L 65.40 389.70 Z" fill="#2b303f" fill-rule="nonzero" group-id="1" node-id="246" stroke="none" target-height="10.899994" target-width="18.900002" target-x="57.1" target-y="379"></path><path d="M 76.50 396.10 L 68.70 391.50 L 68.20 390.80 L 68.80 390.10 L 76.30 385.80 L 77.50 385.40 L 78.80 385.70 L 86.70 390.20 L 87.10 390.90 L 86.50 391.60 L 79.00 396.00 L 77.80 396.30 L 76.50 396.10 Z" fill="#2b303f" fill-rule="nonzero" group-id="1" node-id="248" stroke="none" target-height="10.899994" target-width="18.900002" target-x="68.2" target-y="385.4"></path><path d="M 87.60 402.50 L 79.70 397.90 L 79.30 397.20 L 79.90 396.50 L 87.40 392.20 L 88.60 391.80 L 89.90 392.10 L 97.70 396.60 L 98.20 397.30 L 97.50 398.00 L 90.10 402.40 L 88.80 402.70 L 87.60 402.50 Z" fill="#2b303f" fill-rule="nonzero" group-id="1" node-id="250" stroke="none" target-height="10.900024" target-width="18.899994" target-x="79.3" target-y="391.8"></path><path d="M 98.70 408.90 L 90.80 404.30 L 90.40 403.60 L 91.00 402.90 L 98.50 398.60 L 99.70 398.20 L 101.00 398.50 L 108.80 403.00 L 109.20 403.70 L 108.60 404.40 L 101.20 408.80 L 99.90 409.10 L 98.70 408.90 Z" fill="#2b303f" fill-rule="nonzero" group-id="1" node-id="252" stroke="none" target-height="10.899994" target-width="18.799995" target-x="90.4" target-y="398.2"></path><path d="M 109.70 415.30 L 101.90 410.70 L 101.50 410.00 L 102.10 409.30 L 109.60 405.00 L 110.80 404.60 L 112.10 404.90 L 119.90 409.40 L 120.30 410.10 L 119.70 410.80 L 112.20 415.20 L 111.00 415.50 L 109.70 415.30 Z" fill="#2b303f" fill-rule="nonzero" group-id="1" node-id="254" stroke="none" target-height="10.899994" target-width="18.800003" target-x="101.5" target-y="404.6"></path><path d="M 120.80 421.70 L 113.00 417.10 L 112.60 416.40 L 113.20 415.70 L 120.70 411.40 L 121.90 411.00 L 123.20 411.30 L 131.00 415.80 L 131.40 416.50 L 130.80 417.20 L 123.30 421.60 L 122.10 421.90 L 120.80 421.70 Z" fill="#2b303f" fill-rule="nonzero" group-id="1" node-id="256" stroke="none" target-height="10.899994" target-width="18.799995" target-x="112.6" target-y="411"></path><path d="M 131.90 428.10 L 124.10 423.50 L 123.70 422.80 L 124.30 422.10 L 131.70 417.80 L 133.00 417.40 L 134.20 417.70 L 142.10 422.20 L 142.50 422.90 L 141.90 423.60 L 134.40 428.00 L 133.20 428.30 L 131.90 428.10 Z" fill="#2b303f" fill-rule="nonzero" group-id="1" node-id="258" stroke="none" target-height="10.899994" target-width="18.800003" target-x="123.7" target-y="417.4"></path><path d="M 143.00 434.50 L 135.20 429.90 L 134.70 429.20 L 135.30 428.50 L 142.80 424.20 L 144.10 423.80 L 145.30 424.10 L 153.20 428.60 L 153.60 429.30 L 153.00 430.00 L 145.50 434.40 L 144.30 434.70 L 143.00 434.50 Z" fill="#2b303f" fill-rule="nonzero" group-id="1" node-id="260" stroke="none" target-height="10.900024" target-width="18.90001" target-x="134.7" target-y="423.8"></path><path d="M 154.10 440.90 L 146.30 436.30 L 145.80 435.60 L 146.40 434.90 L 153.90 430.60 L 155.10 430.20 L 156.40 430.50 L 164.30 435.00 L 164.70 435.70 L 164.10 436.40 L 156.60 440.80 L 155.40 441.10 L 154.10 440.90 Z" fill="#2b303f" fill-rule="nonzero" group-id="1" node-id="262" stroke="none" target-height="10.899994" target-width="18.899994" target-x="145.8" target-y="430.2"></path><path d="M 165.20 447.30 L 157.30 442.70 L 156.90 442.00 L 157.50 441.30 L 165.00 437.00 L 166.20 436.70 L 167.50 436.90 L 175.30 441.40 L 175.80 442.10 L 175.20 442.90 L 167.70 447.20 L 166.40 447.50 L 165.20 447.30 Z" fill="#2b303f" fill-rule="nonzero" group-id="1" node-id="264" stroke="none" target-height="10.799988" target-width="18.90001" target-x="156.9" target-y="436.7"></path><path d="M 176.30 453.70 L 168.40 449.10 L 168.00 448.40 L 168.60 447.70 L 176.10 443.40 L 177.30 443.00 L 178.60 443.30 L 186.40 447.80 L 186.80 448.50 L 186.20 449.30 L 178.80 453.60 L 177.50 453.90 L 176.30 453.70 Z" fill="#2b303f" fill-rule="nonzero" group-id="1" node-id="266" stroke="none" target-height="10.899994" target-width="18.800003" target-x="168" target-y="443"></path><path d="M 187.40 460.10 L 179.50 455.50 L 179.10 454.80 L 179.70 454.10 L 187.20 449.80 L 188.40 449.40 L 189.70 449.70 L 197.50 454.20 L 197.90 454.90 L 197.30 455.60 L 189.80 460.00 L 188.60 460.30 L 187.40 460.10 Z" fill="#2b303f" fill-rule="nonzero" group-id="1" node-id="268" stroke="none" target-height="10.899994" target-width="18.799988" target-x="179.1" target-y="449.4"></path><path d="M 54.30 383.30 L 37.80 373.60 L 37.80 372.80 L 38.30 372.50 L 45.80 368.10 L 47.00 367.80 L 48.30 368.00 L 64.80 377.70 L 64.70 378.50 L 64.30 378.80 L 56.80 383.20 L 55.60 383.50 L 54.30 383.30 Z" fill="#2b303f" fill-rule="nonzero" group-id="1" node-id="270" stroke="none" target-height="15.700012" target-width="27.000004" target-x="37.8" target-y="367.8"></path><path d="M 49.20 392.70 L 41.30 388.20 L 40.90 387.50 L 41.50 386.70 L 49.00 382.40 L 50.20 382.10 L 51.50 382.30 L 59.30 386.80 L 59.80 387.50 L 59.20 388.30 L 51.70 392.60 L 50.40 393.00 L 49.20 392.70 Z" fill="#2b303f" fill-rule="nonzero" group-id="1" node-id="272" stroke="none" target-height="10.899994" target-width="18.899998" target-x="40.9" target-y="382.1"></path><path d="M 60.20 399.10 L 52.40 394.60 L 52.00 393.90 L 52.60 393.10 L 60.00 388.80 L 61.30 388.50 L 62.60 388.70 L 70.40 393.20 L 70.80 393.90 L 70.20 394.70 L 62.70 399.00 L 61.50 399.30 L 60.20 399.10 Z" fill="#2b303f" fill-rule="nonzero" group-id="1" node-id="274" stroke="none" target-height="10.799988" target-width="18.800003" target-x="52" target-y="388.5"></path><path d="M 71.30 405.50 L 63.50 401.00 L 63.00 400.30 L 63.70 399.60 L 71.10 395.20 L 72.40 394.90 L 73.60 395.10 L 81.50 399.70 L 81.90 400.40 L 81.30 401.10 L 73.80 405.40 L 72.60 405.80 L 71.30 405.50 Z" fill="#2b303f" fill-rule="nonzero" group-id="1" node-id="276" stroke="none" target-height="10.899994" target-width="18.900002" target-x="63" target-y="394.9"></path><path d="M 82.40 411.90 L 74.60 407.40 L 74.10 406.70 L 74.70 405.90 L 82.20 401.60 L 83.50 401.30 L 84.70 401.50 L 92.60 406.00 L 93.00 406.70 L 92.40 407.40 L 84.90 411.80 L 83.70 412.10 L 82.40 411.90 Z" fill="#2b303f" fill-rule="nonzero" group-id="1" node-id="278" stroke="none" target-height="10.800018" target-width="18.900002" target-x="74.1" target-y="401.3"></path><path d="M 93.50 418.30 L 85.60 413.80 L 85.20 413.10 L 85.80 412.30 L 93.30 408.00 L 94.50 407.70 L 95.80 407.90 L 103.60 412.40 L 104.10 413.10 L 103.50 413.90 L 96.00 418.20 L 94.80 418.50 L 93.50 418.30 Z" fill="#2b303f" fill-rule="nonzero" group-id="1" node-id="280" stroke="none" target-height="10.799988" target-width="18.900002" target-x="85.2" target-y="407.7"></path><path d="M 104.60 424.70 L 96.70 420.20 L 96.30 419.50 L 96.90 418.70 L 104.40 414.40 L 105.60 414.10 L 106.90 414.30 L 114.70 418.80 L 115.10 419.50 L 114.50 420.30 L 107.10 424.60 L 105.80 424.90 L 104.60 424.70 Z" fill="#2b303f" fill-rule="nonzero" group-id="1" node-id="282" stroke="none" target-height="10.799988" target-width="18.799995" target-x="96.3" target-y="414.1"></path><path d="M 115.70 431.10 L 107.80 426.60 L 107.40 425.90 L 108.00 425.10 L 115.50 420.80 L 116.70 420.50 L 118.00 420.70 L 125.80 425.20 L 126.20 425.90 L 125.60 426.70 L 118.10 431.00 L 116.90 431.30 L 115.70 431.10 Z" fill="#2b303f" fill-rule="nonzero" group-id="1" node-id="284" stroke="none" target-height="10.799988" target-width="18.799995" target-x="107.4" target-y="420.5"></path><path d="M 126.70 437.50 L 118.90 433.00 L 118.50 432.30 L 119.10 431.60 L 126.60 427.20 L 127.80 426.90 L 129.10 427.10 L 136.90 431.70 L 137.30 432.40 L 136.70 433.10 L 129.20 437.40 L 128.00 437.80 L 126.70 437.50 Z" fill="#2b303f" fill-rule="nonzero" group-id="1" node-id="286" stroke="none" target-height="10.899994" target-width="18.800003" target-x="118.5" target-y="426.9"></path><path d="M 137.80 443.90 L 130.00 439.40 L 129.60 438.70 L 130.20 437.90 L 137.70 433.60 L 138.90 433.30 L 140.20 433.50 L 148.00 438.00 L 148.40 438.70 L 147.80 439.40 L 140.30 443.80 L 139.10 444.10 L 137.80 443.90 Z" fill="#2b303f" fill-rule="nonzero" group-id="1" node-id="288" stroke="none" target-height="10.800018" target-width="18.799988" target-x="129.6" target-y="433.3"></path><path d="M 148.90 450.30 L 141.10 445.80 L 140.60 445.10 L 141.20 444.30 L 148.70 440.00 L 150.00 439.70 L 151.20 439.90 L 159.10 444.40 L 159.50 445.10 L 158.90 445.90 L 151.40 450.20 L 150.20 450.50 L 148.90 450.30 Z" fill="#2b303f" fill-rule="nonzero" group-id="1" node-id="290" stroke="none" target-height="10.799988" target-width="18.899994" target-x="140.6" target-y="439.7"></path><path d="M 160.00 456.70 L 152.20 452.20 L 151.70 451.50 L 152.30 450.70 L 159.80 446.40 L 161.10 446.10 L 162.30 446.30 L 170.20 450.80 L 170.60 451.50 L 170.00 452.30 L 162.50 456.60 L 161.30 456.90 L 160.00 456.70 Z" fill="#2b303f" fill-rule="nonzero" group-id="1" node-id="292" stroke="none" target-height="10.799988" target-width="18.90001" target-x="151.7" target-y="446.1"></path><path d="M 184.80 471.00 L 162.90 458.20 L 163.00 457.50 L 163.40 457.10 L 170.90 452.80 L 172.10 452.40 L 173.40 452.70 L 195.30 465.50 L 195.20 466.20 L 194.80 466.60 L 187.30 470.90 L 186.00 471.20 L 184.80 471.00 Z" fill="#2b303f" fill-rule="nonzero" group-id="1" node-id="294" stroke="none" target-height="18.800018" target-width="32.40001" target-x="162.9" target-y="452.4"></path><path d="M 38.10 386.30 L 27.40 380.10 L 26.90 379.40 L 27.50 378.70 L 35.00 374.40 L 36.20 374.00 L 37.50 374.30 L 48.20 380.40 L 48.60 381.10 L 48.00 381.90 L 40.50 386.20 L 39.30 386.50 L 38.10 386.30 Z" fill="#2b303f" fill-rule="nonzero" group-id="1" node-id="296" stroke="none" target-height="12.5" target-width="21.699999" target-x="26.9" target-y="374"></path><path d="M 228.20 446.00 L 70.80 355.10 L 70.40 354.40 L 71.00 353.60 L 74.70 351.50 L 75.90 351.10 L 77.20 351.40 L 234.60 442.30 L 235.00 442.90 L 234.40 443.70 L 230.70 445.90 L 229.50 446.20 L 228.20 446.00 Z" fill="#2b303f" fill-rule="nonzero" group-id="1" node-id="298" stroke="none" target-height="95.100006" target-width="164.6" target-x="70.4" target-y="351.1"></path><g node-id="342"><path d="M 378.70 485.70 L 378.50 487.60 L 377.90 489.40 L 376.80 491.20 L 373.70 494.30 L 371.50 495.80 L 367.70 497.60 L 363.40 498.90 L 358.80 499.70 L 354.00 500.00 L 349.10 499.70 L 344.50 498.90 L 340.20 497.60 L 336.40 495.80 L 334.20 494.30 L 331.10 491.20 L 330.00 489.40 L 329.40 487.60 L 329.20 485.70 L 329.40 483.90 L 330.00 482.00 L 331.10 480.20 L 334.20 477.10 L 336.40 475.60 L 340.20 473.80 L 344.50 472.50 L 349.10 471.70 L 354.00 471.40 L 358.80 471.70 L 363.40 472.50 L 367.70 473.80 L 371.50 475.60 L 373.70 477.10 L 376.80 480.20 L 377.90 482.00 L 378.70 485.70 Z" fill="#d6d8e5" fill-opacity="0.4" fill-rule="nonzero" group-id="1,4" node-id="302" stroke="none" target-height="28.600006" target-width="49.5" target-x="329.2" target-y="471.4"></path></g><path d="M 381.10 483.70 L 381.10 445.60 L 331.70 446.80 L 331.60 484.10 L 332.00 486.10 L 332.90 488.30 L 334.30 490.20 L 336.20 492.00 L 338.90 493.80 L 344.10 496.20 L 351.60 497.80 L 356.40 498.00 L 361.10 497.80 L 365.70 497.00 L 371.40 495.10 L 376.20 492.30 L 379.30 489.10 L 380.40 487.30 L 381.10 483.70 Z" fill="#a6ce28" fill-rule="nonzero" group-id="1" node-id="305" stroke="none" target-height="52.399994" target-width="49.5" target-x="331.6" target-y="445.6"></path><path d="M 381.10 445.60 L 380.90 447.40 L 380.30 449.20 L 379.20 451.00 L 376.10 454.20 L 373.90 455.70 L 370.20 457.40 L 365.90 458.80 L 361.30 459.60 L 356.40 459.90 L 351.50 459.60 L 346.90 458.80 L 342.60 457.40 L 338.90 455.70 L 334.90 452.60 L 332.50 449.20 L 331.80 447.40 L 331.60 445.60 L 331.80 443.70 L 332.50 441.90 L 333.50 440.10 L 336.60 436.90 L 338.90 435.50 L 342.60 433.70 L 346.90 432.40 L 351.50 431.60 L 356.40 431.30 L 361.30 431.60 L 365.90 432.40 L 370.20 433.70 L 373.90 435.50 L 376.10 436.90 L 379.20 440.10 L 380.30 441.90 L 380.90 443.70 L 381.10 445.60 Z" fill="#bcd64d" fill-rule="nonzero" group-id="1" node-id="307" stroke="none" target-height="28.600006" target-width="49.5" target-x="331.6" target-y="431.3"></path><path d="M 377.20 445.60 L 376.60 447.90 L 375.80 449.10 L 374.20 450.70 L 371.90 452.30 L 368.60 453.80 L 365.20 454.90 L 361.60 455.60 L 358.00 455.90 L 352.00 455.70 L 348.00 454.90 L 344.10 453.80 L 340.90 452.20 L 338.60 450.60 L 337.00 449.00 L 335.70 446.70 L 335.70 444.40 L 337.00 442.00 L 338.60 440.40 L 340.90 438.80 L 344.10 437.30 L 347.90 436.10 L 352.00 435.40 L 356.40 435.20 L 361.70 435.50 L 365.20 436.20 L 368.60 437.30 L 372.00 438.80 L 374.20 440.40 L 375.80 442.10 L 376.90 443.90 L 377.20 445.60 Z" fill="#28221c" fill-rule="nonzero" group-id="1" node-id="309" stroke="none" target-height="20.699982" target-width="41.5" target-x="335.7" target-y="435.2"></path><g node-id="343"><path d="M 377.20 445.60 L 376.60 447.90 L 375.80 449.10 L 374.20 450.70 L 371.90 452.30 L 365.90 454.80 L 359.60 455.90 L 353.20 455.50 L 347.00 453.70 L 344.00 452.30 L 341.70 450.70 L 340.10 449.10 L 338.90 446.70 L 338.90 444.40 L 340.10 442.10 L 341.70 440.40 L 344.00 438.90 L 350.00 436.30 L 356.40 435.30 L 362.80 435.60 L 365.90 436.30 L 371.90 438.90 L 374.20 440.40 L 375.80 442.10 L 376.60 443.30 L 377.20 445.60 Z" fill="#ffffff" fill-opacity="0.07" fill-rule="nonzero" group-id="1,5" node-id="313" stroke="none" target-height="20.600006" target-width="38.30002" target-x="338.9" target-y="435.3"></path></g><path d="M 377.50 463.20 L 372.30 460.20 L 369.70 461.70 L 372.30 463.20 L 372.30 464.20 L 377.20 467.00 L 377.00 467.90 L 380.30 473.20 L 380.50 473.10 L 380.30 486.70 L 380.00 487.30 L 378.80 487.50 L 372.30 483.80 L 369.70 485.30 L 372.30 486.80 L 372.30 487.80 L 379.60 491.80 L 379.30 493.30 L 382.90 491.00 L 383.70 488.80 L 383.80 474.40 L 383.50 471.80 L 382.70 469.40 L 380.10 465.60 L 377.50 463.20 Z" fill="#8da01f" fill-rule="nonzero" group-id="1" node-id="316" stroke="none" target-height="33.099976" target-width="14.099976" target-x="369.7" target-y="460.2"></path><path d="M 375.20 492.30 L 369.70 489.20 L 369.70 485.20 L 376.30 488.90 L 377.40 488.70 L 377.90 486.80 L 377.70 472.50 L 377.20 471.30 L 375.80 469.40 L 374.70 468.50 L 369.70 465.60 L 369.70 461.70 L 375.00 464.70 L 377.60 467.00 L 380.20 470.90 L 381.00 473.20 L 381.30 475.90 L 381.20 490.40 L 380.70 491.80 L 380.00 492.80 L 378.80 493.30 L 376.80 493.10 L 375.20 492.30 Z" fill="#99b524" fill-rule="nonzero" group-id="1" node-id="318" stroke="none" target-height="31.599976" target-width="11.599976" target-x="369.7" target-y="461.7"></path><g node-id="344"><path d="M 42.50 291.00 L 42.20 293.00 L 41.40 294.80 L 39.90 296.60 L 35.80 299.40 L 30.10 301.40 L 23.30 302.10 L 16.50 301.40 L 10.80 299.40 L 6.70 296.60 L 5.30 294.80 L 4.40 293.00 L 4.10 291.00 L 4.40 289.00 L 5.30 287.20 L 6.70 285.40 L 8.50 283.90 L 10.80 282.60 L 16.50 280.60 L 23.30 279.90 L 30.10 280.60 L 35.80 282.60 L 39.90 285.40 L 41.40 287.20 L 42.20 289.00 L 42.50 291.00 Z" fill="#d6d8e5" fill-opacity="0.4" fill-rule="nonzero" group-id="1,6" node-id="322" stroke="none" target-height="22.200012" target-width="38.4" target-x="4.1" target-y="279.9"></path></g><path d="M 45.30 289.00 L 45.00 290.90 L 44.10 292.80 L 42.60 294.50 L 38.50 297.40 L 32.80 299.30 L 26.10 300.00 L 19.30 299.30 L 13.60 297.40 L 9.50 294.50 L 8.00 292.80 L 7.10 290.90 L 6.80 289.00 L 7.10 287.00 L 8.00 285.10 L 9.50 283.40 L 11.30 281.90 L 13.60 280.50 L 19.30 278.60 L 26.10 277.90 L 32.80 278.60 L 38.50 280.50 L 42.60 283.40 L 44.10 285.10 L 45.00 287.00 L 45.30 289.00 Z" fill="#d6d8e5" fill-rule="nonzero" group-id="1" node-id="325" stroke="none" target-height="22.100006" target-width="38.5" target-x="6.8" target-y="277.9"></path><path d="M 0.30 251.00 L 7.10 289.70 L 45.20 289.70 L 51.80 251.30 L 0.30 251.00 Z" fill="#d6d8e5" fill-rule="nonzero" group-id="1" node-id="327" stroke="none" target-height="38.700012" target-width="51.5" target-x="0.3" target-y="251"></path><path d="M 51.80 250.60 L 51.50 252.50 L 50.90 254.40 L 49.80 256.30 L 48.30 258.10 L 45.80 260.10 L 42.80 261.80 L 39.00 263.40 L 35.10 264.50 L 30.80 265.20 L 26.10 265.40 L 21.30 265.20 L 17.00 264.50 L 13.10 263.40 L 9.30 261.80 L 6.30 260.10 L 3.80 258.10 L 2.30 256.30 L 1.20 254.40 L 0.60 252.50 L 0.30 250.60 L 0.60 248.60 L 1.20 246.70 L 2.30 244.80 L 3.80 243.00 L 6.30 241.00 L 9.30 239.30 L 13.10 237.70 L 17.00 236.60 L 21.30 235.90 L 26.10 235.70 L 30.80 235.90 L 35.10 236.60 L 39.00 237.70 L 42.80 239.30 L 45.80 241.00 L 48.30 243.00 L 49.80 244.80 L 50.90 246.70 L 51.50 248.60 L 51.80 250.60 Z" fill="#e4e6ef" fill-rule="nonzero" group-id="1" node-id="329" stroke="none" target-height="29.699997" target-width="51.5" target-x="0.3" target-y="235.7"></path><path d="M 26.10 262.10 L 21.40 261.90 L 17.00 261.10 L 13.00 259.90 L 9.50 258.20 L 6.90 256.40 L 5.10 254.60 L 3.80 251.90 L 3.60 250.60 L 4.30 247.90 L 5.10 246.50 L 6.90 244.70 L 9.50 242.90 L 13.00 241.20 L 17.00 240.00 L 21.40 239.20 L 26.10 239.00 L 30.70 239.20 L 35.10 240.00 L 39.10 241.20 L 42.60 242.90 L 45.20 244.70 L 47.00 246.50 L 48.30 249.20 L 48.30 251.90 L 47.00 254.60 L 45.20 256.40 L 42.60 258.20 L 39.10 259.90 L 35.10 261.10 L 30.70 261.90 L 26.10 262.10 Z" fill="#28221c" fill-rule="nonzero" group-id="1" node-id="331" stroke="none" target-height="23.100006" target-width="44.7" target-x="3.6" target-y="239"></path><path d="M 37.10 238.90 L 37.20 235.00 L 36.80 231.30 L 36.00 227.70 L 34.80 224.20 L 33.20 220.80 L 31.20 217.70 L 28.90 214.80 L 26.10 212.00 L 21.10 217.80 L 19.10 220.90 L 17.50 224.20 L 16.30 227.80 L 15.50 231.40 L 15.10 235.10 L 15.20 238.90 L 0.50 237.50 L 2.00 242.10 L 3.70 245.80 L 5.50 248.70 L 7.80 251.40 L 12.20 255.20 L 15.80 257.00 L 18.90 258.10 L 24.10 258.90 L 28.90 258.90 L 34.10 257.90 L 37.20 256.70 L 40.70 254.80 L 44.90 251.00 L 47.00 248.40 L 48.80 245.50 L 50.40 241.90 L 51.80 237.50 Z" fill="#99b524" fill-rule="nonzero" group-id="1" node-id="333" stroke="none" target-height="46.899994" target-width="51.3" target-x="0.5" target-y="212"></path><path d="M 26.20 258.90 L 25.30 254.80 L 24.20 251.70 L 22.60 248.40 L 18.10 241.90 L 12.50 236.30 L 9.20 233.70 L 0.40 228.40 L 0.00 233.00 L 0.50 239.70 L 2.40 246.10 L 5.50 250.90 L 7.50 253.00 L 10.10 254.90 L 13.30 256.60 L 16.80 257.70 L 21.00 258.50 L 26.20 258.90 Z" fill="#a6ce28" fill-rule="nonzero" group-id="1" node-id="335" stroke="none" target-height="30.5" target-width="26.2" target-x="0" target-y="228.4"></path><path d="M 26.10 258.90 L 26.90 254.80 L 28.10 251.70 L 29.70 248.40 L 34.20 241.90 L 39.80 236.30 L 43.10 233.70 L 51.80 228.40 L 52.30 233.00 L 51.80 239.70 L 49.80 246.10 L 46.80 250.90 L 44.70 253.00 L 42.10 254.90 L 38.90 256.60 L 35.50 257.70 L 31.30 258.50 L 26.10 258.90 Z" fill="#a6ce28" fill-rule="nonzero" group-id="1" node-id="337" stroke="none" target-height="30.5" target-width="26.199999" target-x="26.1" target-y="228.4"></path></g></svg>