<?xml version="1.0" encoding="UTF-8"?>
<svg width="236px" height="509px" viewBox="0 0 236 509" version="1.1" xmlns="http://www.w3.org/2000/svg" xmlns:xlink="http://www.w3.org/1999/xlink">
    <title>worker002</title>
    <defs>
        <rect id="path-1" x="7" y="0" width="39" height="53" rx="19.5"></rect>
        <filter x="-54.5%" y="-54.5%" width="209.1%" height="209.1%" filterUnits="objectBoundingBox" id="filter-3">
            <feGaussianBlur stdDeviation="2" in="SourceGraphic"></feGaussianBlur>
        </filter>
        <filter x="-54.5%" y="-54.5%" width="209.1%" height="209.1%" filterUnits="objectBoundingBox" id="filter-4">
            <feGaussianBlur stdDeviation="2" in="SourceGraphic"></feGaussianBlur>
        </filter>
        <path d="M78.4174809,0 C79.1791034,1.81301254 79.2915132,3.41345519 79.3520527,4.99389698 L79.3807654,5.78334267 C79.4455945,7.49406032 79.5663893,9.21897161 80.5026181,11.2029111 C82.2980912,15.007654 91.905129,20.1029598 95.1978883,23.1650714 C95.5789275,22.2249435 96.4895799,21.2152459 97.4129128,20.2190549 L97.7961785,19.8058616 C98.2409856,19.3252312 98.6720349,18.8505107 99.0307317,18.3912613 C99.6170604,17.6405688 100.861741,15.3936518 101.200073,14.6427924 C102.22532,12.4465285 103.273373,10.5923435 104.488291,8.2271363 C104.935982,7.35682196 104.681852,2.90478555 104.681852,1.16415687 C104.681852,-0.576471814 104.953542,0.539578342 105.086824,0.227289078 L105.599448,0.345037489 C106.409394,0.524219854 107.219339,0.713641211 108.024158,0.908182064 C108.465014,1.01569148 108.905871,1.1180814 109.341601,1.23071032 C110.156673,1.43037067 110.971744,1.63515051 111.78169,1.85528885 C112.202041,1.95767877 112.622392,2.07030769 113.037618,2.1829366 C113.642513,2.34164098 114.247409,2.51058435 114.847179,2.69488621 L115.600736,2.90478555 C116.795149,3.2375528 140.919219,8.84340106 148.352262,18.3912613 C150.151571,20.6950346 160.542785,44.3289525 177.97199,71.9742316 C195.401194,99.6195107 210,132.413199 210,138.556594 C210,142.140242 191.830246,153.226902 189.779751,152.714952 C188.829347,152.460001 179.913365,138.991852 171.402373,125.531156 L170.552934,124.185601 C170.411689,123.961509 170.270634,123.737541 170.129808,123.51376 L169.287907,122.173788 C164.396445,114.375995 159.880152,106.95563 157.400548,102.53693 C155.841939,99.759461 154.186754,96.5386279 152.53492,93.1710189 L152.084578,92.2491638 L152.084578,92.2491638 L151.634852,91.3213675 C151.559975,91.166314 151.485141,91.0110687 151.410362,90.8556593 L150.962406,89.9214582 C150.88788,89.7655043 150.813426,89.6094421 150.739054,89.4532995 L150.293881,88.5157017 L150.293881,88.5157017 L149.630798,87.1086105 L149.630798,87.1086105 L149.192517,86.1720365 C144.608383,76.3501033 140.61046,66.9828273 139.545387,65.0349906 L139.232687,64.4360095 C138.720063,65.4599088 147.997784,133.716502 148.12594,134.791596 C148.216162,135.441041 148.330956,136.073234 148.452547,136.688175 L148.544737,137.146146 C149.473826,141.693513 150.535271,145.270473 144.23,147.877028 C143.527705,148.16372 142.692129,148.476009 141.692513,148.803657 C141.020976,149.028915 140.29305,149.259292 139.508736,149.499908 C136.197187,150.523808 131.962916,151.624499 127.405691,152.714952 L126.723902,152.878776 C126.287608,152.981985 125.849209,153.085226 125.409206,153.188361 L124.527209,153.394446 L124.527209,153.394446 L123.641822,153.6 C122.755036,153.805206 121.864499,154.009244 120.97421,154.211003 L119.639462,154.511794 C119.343115,154.578195 119.047018,154.64428 118.751319,154.71001 L117.865563,154.906089 C117.718185,154.938577 117.570944,154.970966 117.423858,155.00325 L116.54335,155.195662 C106.860217,157.302116 98.0174279,158.906485 95.3739231,158.519822 C95.318348,158.670887 95.2654692,158.782819 95.2163813,158.856726 C92.3149377,163.222857 50.9298863,151.146959 40.9851883,147.020966 C33.4523153,143.895544 36.1869259,139.405706 36.9957033,133.55873 C39.3748871,116.330706 42.2415954,112.606122 45.0777566,96.7461526 C46.1657979,90.6954233 47.2538393,84.4955179 48.2765981,77.9608759 C48.3201198,77.6916312 48.3600147,77.4260249 48.4035363,77.1567802 C47.1341547,81.3591808 44.827507,89.9968424 43.8700306,93.0021956 C38.4298239,110.102874 29.725493,150.489581 20.6584817,151.944958 C20.1659815,152.024057 18.116368,151.475422 15.5155643,150.618482 L14.8252518,150.388149 C13.5391812,149.95382 12.1470427,149.455324 10.7588784,148.927605 L10.0027534,148.637071 C5.60203989,146.92783 1.44411846,144.987061 1.07373726,143.940385 C-4.36646953,128.658928 12.4981715,72.6269197 15.2182749,65.7138797 C17.2456586,60.5509303 21.1554058,51.8930553 25.268994,43.2940794 L25.8441371,42.0949622 L25.8441371,42.0949622 L26.4209127,40.8987549 C31.5199902,30.3514277 36.6915327,20.3958095 38.7925043,17.6864436 C46.4087938,7.86264987 71.192196,2.63478554 72.3404462,1.75006709 C75.8915613,-0.986041386 74.79793,0.807734152 78.4174809,0 Z" id="path-5"></path>
    </defs>
    <g id="人物设计" stroke="none" stroke-width="1" fill="none" fill-rule="evenodd">
        <g transform="translate(-2210.000000, -725.000000)" id="人物角色">
            <g transform="translate(149.000000, 95.000000)">
                <g id="45度" transform="translate(0.000000, 630.699242)">
                    <g id="worker002" transform="translate(2061.000000, 0.000000)">
                        <g id="hand" transform="translate(33.061130, 189.786057) rotate(7.000000) translate(-33.061130, -189.786057) translate(9.871922, 107.363595)" fill="#FFD4C9" fill-rule="nonzero">
                            <path d="M46.378416,29.9685253 C46.378416,29.9685253 43.0682866,35.4191006 39.99495,47.0414984 C34.6425542,67.2825857 27.441824,102.432346 21.2667556,132.750331 L7.81424815,129.140572 C7.81424815,129.140572 10.8712316,90.5033705 15.0264208,58.668996 C17.6994417,38.1900375 21.3724344,25.5052668 25.1596998,17.4748549 C29.4640457,8.34803964 38.2927865,2.11863956 38.9698034,0 L46.378416,29.9685253 Z" id="路径"></path>
                            <path d="M7.88205786,128.48707 C7.88205786,128.48707 -10.227898,151.748928 8.4539512,164.321608 C9.68417503,165.150993 11.3267714,164.979547 12.3618891,163.913716 L12.5048624,163.769754 C13.6318037,162.574082 13.678117,160.71392 12.6120924,159.462891 C10.0624012,156.367708 6.78592895,150.117359 13.3150446,142.811288 C13.3150446,142.811288 16.3651425,143.879006 15.3643291,150.165346 C15.2339051,150.927812 15.4454543,151.709294 15.9420922,152.299657 C16.4387301,152.89002 17.1694806,153.228667 17.9378492,153.224538 C19.031217,153.195508 19.9869174,152.473776 20.3207381,151.425013 C21.482855,147.862316 20.8571839,142.501298 20.8571839,134.304767 C20.8571839,133.777632 21.1811263,133.073548 21.2588017,132.793907 C21.3364771,132.514267 21.3194669,132.200755 21.4610447,131.914014 L7.88205786,128.48707 Z" id="路径"></path>
                        </g>
                        <g id="hand" transform="translate(193.309518, 198.017810) rotate(-9.000000) translate(-193.309518, -198.017810) translate(161.859040, 127.352235)" fill="#FFD4C9">
                            <path d="M39.3775776,100.21519 L41.8460566,108.724364 L54.4352965,105.753068 C54.2953477,105.213021 52.294168,99.6955075 52.1567765,99.1653322 C37.3508631,42.0313013 37.2746745,41.789087 26.1994849,5.89462899 C24.4281559,0.156391343 12.9029952,-1.21763976 7.34781241,1.01535355 C2.14290112,3.10955584 -1.48271595,10.3636999 0.595868753,15.591495 L39.3775776,100.21519 Z" id="Fill-13"></path>
                            <path d="M50.3117167,105.753068 C50.3117167,105.753068 31.4728865,128.364052 50.0009413,140.812986 C51.2210376,141.634208 52.8501117,141.464449 53.8767079,140.409108 L54.0185042,140.266563 C55.1361683,139.082659 55.1821003,137.240806 54.1248515,136.002091 C51.5961501,132.937372 48.3466507,126.748542 54.8220168,119.514381 C54.8220168,119.514381 57.8470054,120.57159 56.854431,126.796057 C56.7250807,127.551018 56.9348884,128.324809 57.4274378,128.909361 C57.9199872,129.493913 58.644722,129.829227 59.4067651,129.825139 C60.491132,129.796394 61.4389648,129.081766 61.7700374,128.043326 C62.9225874,124.515694 62.3020671,119.207442 62.3020671,111.091586 C62.3020671,110.569639 62.6233427,109.872485 62.7003786,109.595597 C62.7774146,109.318709 62.7605444,109.008282 62.9009567,108.724364 L50.3117167,105.753068 Z" id="路径" fill-rule="nonzero" transform="translate(52.373507, 123.542109) scale(-1, 1) translate(-52.373507, -123.542109) "></path>
                        </g>
                        <g id="body" transform="translate(59.090177, 76.765185)" fill="#FFFFFF" fill-rule="nonzero">
                            <path d="M44.5536666,0 L3.92339674,19.4789194 C1.13245176,21.0881922 -0.634866027,25.1713218 0.213880679,29.2762705 L8.48564116,166.181428 C21.5885777,170.727143 33.8262302,173 45.1985987,173 C56.5709672,173 67.8928085,170.727143 79.1641224,166.181428 L88.037023,27.9428065 C88.8616832,23.7312109 87.2484403,19.3321194 84.3459997,17.8778933 L44.5536666,0 Z" id="路径"></path>
                        </g>
                        <g id="head" transform="translate(70.199921, 0.000000)">
                            <g transform="translate(3.800079, 17.204683)">
                                <path d="M29.4845242,73.3775262 L29.4845242,73.3775262 C22.9918456,73.3775262 17.7284896,68.8826688 17.7284896,63.338083 L17.7284896,42.3775262 L41.2882185,42.3775262 L41.2882185,63.338083 C41.2882185,66.0077538 40.0431254,68.5674918 37.8281226,70.4514115 C35.6131198,72.3353311 32.6106679,73.3882666 29.4845242,73.3775262 L29.4845242,73.3775262 Z" id="路径" fill="#FFD3C7" fill-rule="nonzero"></path>
                                <path d="M17.7602626,57.4479646 C23.2570032,59.7299238 32.5823982,62.5189849 41.2882185,60.0468625 L41.2882185,42.3775262 L17.7602626,42.3775262 L17.7602626,57.4479646 Z" id="路径" fill="#F7CDC2" fill-rule="nonzero"></path>
                                <g id="face" transform="translate(2.000000, 2.588651)">
                                    <g id="编组-16" transform="translate(0.000000, 21.999226)" fill="#FFB799" fill-rule="nonzero">
                                        <circle id="椭圆形" cx="7" cy="8" r="7"></circle>
                                        <circle id="椭圆形备份-3" cx="43" cy="7" r="7"></circle>
                                    </g>
                                    <mask id="mask-2" fill="white">
                                        <use xlink:href="#path-1"></use>
                                    </mask>
                                    <use id="矩形" fill="#FFD3C7" fill-rule="nonzero" xlink:href="#path-1"></use>
                                    <circle id="椭圆形" fill="#FFC1C6" fill-rule="nonzero" filter="url(#filter-3)" mask="url(#mask-2)" cx="16.5" cy="39.5" r="5.5"></circle>
                                    <circle id="椭圆形备份-2" fill="#FFC1C6" fill-rule="nonzero" filter="url(#filter-4)" mask="url(#mask-2)" cx="41.5" cy="41.5" r="5.5"></circle>
                                    <path d="M34.5396159,44.0984828 C33.148896,43.0371232 31.6680221,42.5064434 30.096994,42.5064434 C28.1396628,42.5064434 26.6215554,43.1879804 25.5396159,44.1064434" id="椭圆形" stroke="#FB959B" stroke-width="1.6" opacity="0.48538426" stroke-linecap="round" stroke-linejoin="round" fill-rule="nonzero" mask="url(#mask-2)" transform="translate(30.039616, 43.306443) scale(1, -1) translate(-30.039616, -43.306443) "></path>
                                </g>
                                <path d="M50.6041933,14.550124 C48.9095858,6.92277719 40.3049793,3 28.5006171,3 C16.6962548,3 8.09164831,6.92277719 6.3970408,14.550124 C5.50237223,18.5621679 6.28652291,25.0092101 7.10751289,29.9684733 C8.24426824,30.2759476 8.64423772,30.6726886 9.77046755,31 L12.222912,23.3379384 C12.222912,23.3379384 16.1647164,21.9592632 28.069071,21.9592632 L28.9269003,21.9592632 C40.8312549,21.9592632 44.7730594,23.3379384 44.7730594,23.3379384 L47.2307665,31 C48.3517336,30.6726886 48.7569659,30.2759476 49.8884585,29.9684733 C50.7094484,25.0092101 51.4988619,18.5621679 50.6041933,14.550124 Z" id="路径" fill="#51485E" fill-rule="nonzero"></path>
                            </g>
                            <g id="安全帽03" transform="translate(30.665125, 26.733025) rotate(-7.000000) translate(-30.665125, -26.733025) translate(2.654473, 3.238515)" fill-rule="nonzero">
                                <path d="M52.2124445,33.7889366 C52.3634372,32.5564554 52.2081663,31.3160165 52.2124445,30.0742173 C52.2124445,14.3875018 40.1630983,1.66974756 25.8755814,1.66974756 C11.5880644,1.66974756 7.67386155e-13,14.3875018 7.67386155e-13,30.0742173 C0.00427266559,31.3160167 0.0715082961,34.5248101 0.2225065,35.7572908 C0.2225065,35.7572908 5.49116296,48.0314843 40.8311462,46.9175376 C40.8264839,46.9175376 65.1943882,43.1958426 52.2124445,33.7889366 Z" id="路径" fill="#FCC232"></path>
                                <path d="M51.9532724,33.707144 C52.3774464,30.2168103 51.7687637,26.7609563 51.0052,23.3295628 C50.8000603,25.1494001 50.3501515,27.0513176 48.8768752,28.2543801 C47.39237,29.5226003 45.4894241,30.1852733 43.5432418,30.1117397 C41.799554,30.0249691 39.9369784,29.4574426 38.9462467,27.9190235 C37.8016601,26.1390538 37.5265864,23.9322667 37.3144532,21.8872949 C36.7433255,16.3832254 35.4495465,11.0339358 34.2000589,5.64477862 C33.6936426,4.70507719 33.2565439,3.72921233 32.8922931,2.72506554 C29.2099101,1.58128283 25.3055127,1.35989203 21.5186929,2.080149 C23.3113346,4.62229276 24.3603446,7.72492762 24.9874195,10.7689337 C25.5437331,13.6154976 25.918258,16.4949827 26.1086947,19.389709 C26.3045099,21.9693752 26.6635045,24.6498829 25.9874758,27.1920266 C25.3743877,29.494965 23.9290849,31.3828116 21.4883882,31.9362673 C18.8681942,32.5272453 16.0218802,32.0371088 13.6021637,30.9348877 C11.1148443,29.8045249 9.05412234,28.1347774 8.00744342,25.5785627 C6.8628569,22.8019038 6.79758516,19.7508623 7.59716393,16.8850877 C8.97020154,11.9602705 12.070609,7.50448342 15.8097471,3.91171198 C6.52717368,8.20802874 0,18.3062492 0,30.0742173 C0.00427266559,31.3160167 -0.0207946649,34.3404411 0.130203539,35.5729218 C0.130203539,35.5729218 5.32187551,44.1121931 24.503041,45.7757652 C24.0099288,45.3228338 23.0201054,43.7132726 22.8777437,43.0569736 C21.9126545,38.2775557 28.6729415,38.0313149 31.7989915,37.7874192 C35.0952142,37.5341429 38.3914369,36.9361293 41.6713417,36.5140021 C45.2193268,36.0590428 48.7789676,35.5220032 52.1614422,34.3892953 C51.9679581,34.1899574 52.1863857,33.9228979 51.9532724,33.707144 Z" id="路径" fill="#D99623" opacity="0.14567813"></path>
                                <path d="M6.80924083,35.2100981 C6.80924083,35.2100981 7.50858086,35.3367363 8.72543253,35.5196581 C9.94228419,35.7025799 11.6929654,35.9136435 13.7933167,36.1153265 C14.8399956,36.2349292 15.9845821,36.2935579 17.1851158,36.3897091 C18.3949741,36.434267 19.6631107,36.5304182 20.9802011,36.5562149 C22.2972915,36.5820115 23.6540112,36.6265694 25.0340422,36.6195339 C26.4164043,36.6476758 27.8314023,36.589047 29.2300824,36.5468343 C30.6287625,36.5468343 32.0274426,36.4014349 33.4121358,36.3381158 C34.7968291,36.2747967 36.1418931,36.1036007 37.4519901,35.9933786 C38.7620871,35.8831565 40.0162369,35.6838187 41.223764,35.5548354 C42.4312912,35.425852 43.5548975,35.2241691 44.5922519,35.0506279 C45.6296063,34.8770867 46.5946955,34.7527937 47.4339036,34.5815977 L49.6158445,34.1477447 L51.5273739,33.7912818 L49.6624672,34.3588083 L47.5178244,34.9896539 C46.6926031,35.2429303 45.7391695,35.4375778 44.7041463,35.6744381 C43.669123,35.9112983 42.5455167,36.1763004 41.3426519,36.3639125 C40.139787,36.5515246 38.8833061,36.8329427 37.5615534,36.9759969 C36.2398007,37.1190511 34.8784188,37.334805 33.4867321,37.4192305 C32.0950454,37.5036559 30.689372,37.6537456 29.2627183,37.6701616 C27.8360646,37.6865777 26.4257289,37.7452065 25.0293799,37.7053389 C23.6306998,37.7053389 22.2599934,37.6256037 20.9335784,37.5435235 C19.6071635,37.4614432 18.3297024,37.3090084 17.117513,37.2058217 C15.9099858,37.0440063 14.7653993,36.9197133 13.7187204,36.7367915 C12.6720415,36.5538697 11.7092834,36.4014349 10.865413,36.2185131 C10.0215427,36.0355913 9.28956682,35.8690856 8.68580326,35.7307217 C7.48060726,35.4328875 6.80924083,35.2100981 6.80924083,35.2100981 Z" id="路径" fill="#D28018" opacity="0.164224534"></path>
                                <path d="M36.3656819,36.4413025 C39.7458254,14.1084288 32.8107034,2.38267349 32.8107034,2.38267349 C31.8689255,0.419782041 28.332596,-2.27373675e-13 28.332596,-2.27373675e-13 L24.2158143,-2.27373675e-13 C18.8099159,0.185266934 20.5629282,3.0768382 20.5629282,3.0768382 C20.5629282,3.0768382 28.3349272,13.4447511 28.1344497,37.1495381 L36.3656819,36.4413025 Z" id="路径" fill="#F5D455"></path>
                                <path d="M20.0990327,2.38267349 C20.0990327,2.38267349 20.4673517,2.81418128 21.031486,3.63498416 C21.3018975,4.05242105 21.6515675,4.54959307 22.0012376,5.1476066 C22.3509076,5.74562012 22.7635182,6.41633332 23.1528175,7.18085257 C23.5421168,7.94537182 23.9430717,8.7802456 24.3626758,9.66905786 C24.7426505,10.571941 25.1925593,11.5123466 25.5282425,12.5301422 C25.9058861,13.5338668 26.2648807,14.5844945 26.5702591,15.6702994 C26.917598,16.7420335 27.1483802,17.867706 27.4327785,18.9769624 C27.7171768,20.0862189 27.8547137,21.2306526 28.0668468,22.3375639 C28.2416818,23.4491655 28.3302649,24.558422 28.4608084,25.6207754 C28.5913518,26.6831289 28.5727028,27.7314114 28.6193254,28.7093394 C28.6659481,29.6872674 28.6193254,30.6182924 28.6193254,31.4742725 C28.6240054,32.2527058 28.5874325,33.0308366 28.5097622,33.8053527 C28.437497,34.508898 28.3745564,35.099876 28.3232715,35.5947029 C28.2067148,36.5843567 28.139112,37.1471929 28.139112,37.1471929 C28.139112,37.1471929 28.139112,36.5796664 28.1064761,35.5829772 C28.1064761,35.0881503 28.1064761,34.4854465 28.1064761,33.7936269 C28.1064761,33.1018073 28.0225553,32.3279075 28.0039062,31.4813079 C27.9502901,30.6347084 27.9596147,29.7177543 27.8290712,28.7538973 C27.6985277,27.7900402 27.6192692,26.7769349 27.5073748,25.7263072 L27.0108434,22.5134503 C26.77773,21.4276453 26.6168818,20.3136986 26.3511326,19.2302388 C26.0853834,18.146779 25.8755814,17.0257968 25.5422293,15.9681336 L25.0993139,14.3851567 L24.6097759,12.8561182 C23.9617208,10.851014 23.2717053,9.0006898 22.5910143,7.4622707 C22.2483377,6.690716 21.9406281,5.97779007 21.642243,5.35163474 C21.3438579,4.7254794 21.0711153,4.19547526 20.8496576,3.75224171 C20.3880932,2.87281006 20.0990327,2.38267349 20.0990327,2.38267349 Z" id="路径" fill="#D28018" opacity="0.164224534"></path>
                                <path d="M32.8107034,2.38267349 C33.088092,2.79824524 33.3425692,3.22883886 33.572984,3.67250657 C33.7897795,4.09697892 34.0392107,4.610567 34.3212779,5.22499658 C34.603345,5.83942616 34.8760876,6.53124573 35.1628171,7.30045528 C35.7878721,9.06387611 36.3009771,10.8654509 36.699034,12.6943027 C36.9204917,13.6980274 37.0860022,14.7486551 37.2654994,15.8133537 C37.3820561,16.8850877 37.5429043,17.9708926 37.6268251,19.063733 C37.7107459,20.1565734 37.7876733,21.251759 37.7900045,22.3305285 C37.7923356,23.409298 37.8156469,24.4669611 37.7736865,25.4917921 C37.7317261,26.5166231 37.659461,27.5062769 37.5988515,28.4443373 C37.4939505,29.3823977 37.3960429,30.2571391 37.3051287,31.0709065 C37.2362787,31.8133369 37.1281159,32.5515445 36.9811012,33.282384 C36.8598822,33.934336 36.7479878,34.5042077 36.6663981,34.9732379 C36.489232,35.9112983 36.3726753,36.4389573 36.3726753,36.4389573 C36.3726753,36.4389573 36.4006489,35.8948823 36.4519339,34.9427509 C36.4845697,34.4737207 36.524199,33.8944684 36.5708217,33.2331358 C36.6174443,32.5718032 36.6430868,31.8260452 36.6780538,31.016968 C36.7130208,30.2078909 36.7479878,29.3284593 36.7852859,28.3997794 C36.7852859,27.461719 36.768968,26.4908265 36.7852859,25.4800664 C36.8016039,24.4693063 36.7153519,23.4233689 36.7060274,22.3657057 C36.6967029,21.3080426 36.5708217,20.2316183 36.5102122,19.1575391 C36.4496027,18.0834599 36.2957479,17.014071 36.1955092,15.958753 C36.0230053,14.9151608 35.9227666,13.8739137 35.7292825,12.88426 C35.5357984,11.8946062 35.388937,10.928404 35.1768039,10.0255208 C34.9646707,9.12263766 34.759531,8.27369297 34.5590535,7.49041251 C34.3259401,6.71885781 34.1394495,5.99420613 33.9273163,5.37977655 C33.7151832,4.76534697 33.5356859,4.20720102 33.3701754,3.76865777 C33.0391545,2.87750036 32.8107034,2.38267349 32.8107034,2.38267349 Z" id="路径" fill="#D28018" opacity="0.164224534"></path>
                                <path d="M52.8703852,35.6374079 L49.6017676,36.8389299 L49.0527274,32.8581285 L52.2887451,31.5425323 L52.8703852,35.6374079 Z M8.50022867,36.7684461 L15.3156115,37.7821101 L16.2792858,33.078709 L9.4639029,32.065045 L8.50022867,36.7684461 Z" id="形状" fill="#FFCD50"></path>
                            </g>
                        </g>
                        <g id="foot" transform="translate(52.000000, 429.690520)">
                            <polygon id="路径" fill="#FFD4C9" fill-rule="nonzero" points="16.8084507 53.5129584 16.6395419 0 38 0.775550122 33.3874923 56.2845966"></polygon>
                            <path d="M1.42416298,70.2317848 C0.353099427,71.5128882 -0.11383183,73.7555957 0.0233692091,76.9599074 C0.0482522171,77.541395 0.526913787,78 1.10893351,78 L34.9105057,78 C35.5105956,78 35.9970646,77.513531 35.9970646,76.913441 L35.9970646,70.2317848 L35.9970646,70.2317848 L1.42416298,70.2317848 Z" id="路径" fill="#1E0B02" fill-rule="nonzero"></path>
                            <path d="M35.4143971,70.2317848 L34.6019629,46.0936265 C34.6019629,46.0936265 29.9305008,41.4361704 16.6395419,46.0936265 C16.6395419,46.0936265 12.3128798,58.3696822 8.99967007,61.7134474 C6.33326793,64.333218 3.91532059,67.1843553 1.77557354,70.2317848 L35.4143971,70.2317848 Z" id="路径" fill="#A74B22" fill-rule="nonzero"></path>
                            <path d="M15.3497881,61.8822028 C18.8181484,60.1597342 22.9461223,60.2940583 26.2898767,62.238193" id="路径" stroke="#4E8985" stroke-width="2.74400815" stroke-linecap="round" stroke-linejoin="round"></path>
                            <path d="M17.407682,55.377435 C20.7275527,53.6481224 24.7371809,53.7789063 27.9319953,55.7207113" id="路径" stroke="#4E8985" stroke-width="2.74400815" stroke-linecap="round" stroke-linejoin="round"></path>
                        </g>
                        <g id="foot" transform="translate(122.962580, 444.684456)">
                            <polygon id="路径" fill="#A74B22" fill-rule="nonzero" points="4.6564087 33.0854697 27.9643212 33.0854697 66.5090376 53.8403846 0.232820435 53.046125"></polygon>
                            <polygon id="路径" fill="#1E0B02" fill-rule="nonzero" points="12.4817622 61.9652697 1.74619362e-13 61.8220426 0.271623841 53.046125 66.547841 53.8403846 66.3279551 62.6163022 20.5399362 62.0564143"></polygon>
                            <line x1="44.0806691" y1="40.7285908" x2="37.6263692" y2="44.0228151" id="路径" stroke="#4E8985" stroke-width="2.52541119" stroke-linecap="round" stroke-linejoin="round"></line>
                            <line x1="36.6174807" y1="36.8744786" x2="31.3531519" y2="38.9708032" id="路径" stroke="#4E8985" stroke-width="2.52541119" stroke-linecap="round" stroke-linejoin="round"></line>
                            <polygon id="路径" fill="#E6A9A0" fill-rule="nonzero" points="25.8818717 -1.13333665e-13 2.12125285 -1.13333665e-13 4.6564087 33.0854697 28.4170276 33.0854697"></polygon>
                        </g>
                        <g id="leg" transform="translate(56.816445, 212.219082)" fill-rule="nonzero">
                            <g id="编组-29">
                                <path d="M87.2022936,0 L6.64054109,0 C-0.151833043,19.4513613 -0.151833043,49.9933615 0.058074775,114.821091 C0.267982593,179.648821 0.260050522,205.926807 0.260872709,265.62964 L35.4097999,265.62964 C35.4097999,265.62964 46.0378224,68.6678123 46.9414975,61.6455524 C48.9933724,63.5689065 57.6637991,122.05824 60.2673869,176.417254 C62.5024334,223.081677 64.6489321,265.550844 64.6489321,265.550844 L98.9996532,265.550844 C100.036284,231.050644 99.7398839,205.2973 98.9996532,176.417254 C98.5486732,158.822302 98.5013104,140.858166 97.4488997,114.821091 C94.9805947,53.7542082 96.2573846,27.3740228 87.2022936,0 Z" id="路径" fill="#083D34"></path>
                                <path d="M0.494627119,216.581825 C7.06085171,215.976858 38.0541182,215.955508 38.0541182,216.197494 C38.0541182,217.07455 37.7810205,221.733136 37.4553777,227.207916 C37.2307048,230.985167 37.0205064,235.161433 36.8598648,238.723608 C36.8598648,238.723608 0.280130719,239.629399 0.260050522,239.145425 C0.260050522,235.60637 0.494627119,228.275289 0.494627119,224.573502 C0.494627119,220.035646 0.494627119,216.581825 0.494627119,216.581825 Z" id="路径" fill="#C1C1C1"></path>
                                <path d="M0.494627119,224.573502 C7.00061112,224.392679 37.5939918,223.971611 37.5939918,224.192616 C37.5939918,224.755175 37.3644252,228.073904 37.2640242,230.886699 C37.2640242,230.886699 0.392396657,231.260905 0.392396657,231.080082 C0.392396657,230.236244 0.392396657,228.612117 0.392396657,227.629721 C0.392396657,226.287544 0.494627119,224.573502 0.494627119,224.573502 Z" id="路径" fill="#12443D"></path>
                                <path d="M99.6707324,216.053244 C93.1982962,216.053244 62.2105024,215.7809 62.2105024,216.053244 C62.2105024,217.536006 62.8466153,229.705541 63.2024784,238.40666 C63.2024784,238.40666 99.6707324,239.338654 99.6707324,238.854487 C99.6707324,235.314014 99.6707324,228.621122 99.6707324,224.679184 C99.6707324,220.154766 99.6707324,216.053244 99.6707324,216.053244 Z" id="路径" fill="#C1C1C1"></path>
                                <path d="M99.670549,224.488299 C93.1444848,224.307476 62.5088165,223.892076 62.5287497,224.113081 C62.5287497,224.67564 62.7284816,228.168139 62.849044,231.049774 C62.849044,231.049774 99.670549,231.230596 99.670549,231.049774 C99.670549,230.205936 99.670549,228.615097 99.670549,227.590008 C99.670549,226.223608 99.670549,224.488299 99.670549,224.488299 Z" id="路径" fill="#12443D"></path>
                            </g>
                        </g>
                        <g id="coat" transform="translate(10.799927, 73.026405)">
                            <path d="M189.265504,153.930877 C189.632257,155.910929 190.369868,157.033336 191.239722,158.974137 C192.109576,160.914939 193.266469,163.249853 193.458405,163.522754 C193.784304,164.061822 194.263885,164.500795 194.840961,164.788243 C197.155388,165.729248 212.568719,156.26761 213.239665,154.830144 C213.493163,154.161887 213.592581,153.449 213.531086,152.740464 C213.531086,152.39651 212.502599,147.997461 212.411106,147.666487 C211.621558,144.794799 209.783701,141.80471 209.783701,141.80471 L189.265504,153.930877 Z" id="路径" fill="#064A37" fill-rule="nonzero" transform="translate(201.407132, 153.329305) rotate(-8.000000) translate(-201.407132, -153.329305) "></path>
                            <path d="M0.795120705,151.751054 C1.18765327,153.971285 1.70468942,156.16754 2.34376624,158.329357 C2.44894357,158.693201 2.5577477,159.024299 2.67017864,159.366313 C3.01119661,160.423553 3.43066112,161.453688 3.92505301,162.448073 C4.09162839,162.776987 4.27815449,163.095341 4.48358091,163.401345 C4.83238812,164.005803 5.34567821,164.498022 5.96331715,164.820338 C8.44042464,165.875486 22.2222818,159.32629 22.9403891,157.71446 C23.2117056,156.965144 23.3181108,156.165785 23.2522943,155.371303 C23.2522943,154.985629 23.2051459,154.578123 23.1543706,154.152425 C23.0129273,153.034376 22.8082876,151.92529 22.5414406,150.830528 C22.4543973,150.466683 22.3601004,150.07737 22.2621767,149.706249 C21.4171312,146.486228 20.3472239,143.630051 20.3472239,143.630051 L0.795120705,151.751054 Z" id="路径备份-6" fill="#064A37" fill-rule="nonzero" transform="translate(12.033165, 154.282395) scale(-1, 1) translate(-12.033165, -154.282395) "></path>
                            <path d="M89.1311362,165.735347 C89.2679961,168.218201 89.5684683,170.68925 90.0305837,173.1323 C90.1031198,173.496144 90.1792827,173.859988 90.266326,174.187448 C90.4566684,175.021386 90.7225292,175.836142 91.0605962,176.621566 C91.2133358,176.969673 91.4030248,177.300255 91.6263777,177.607584 C91.7491894,177.776812 91.8930027,177.929646 92.0543407,178.062389 C93.272947,179.033853 122.975639,172.204194 131.063413,169.089687 C138.396812,166.277172 149.922797,161.921956 150.394281,159.800745 C150.491727,159.27799 150.522197,158.744887 150.484951,158.214384 C150.484951,157.85054 150.434176,157.432119 150.383401,157.01006 C150.296358,156.282371 150.158539,155.46736 149.995333,154.652349 C149.922797,154.288505 149.843007,153.90283 149.755964,153.52807 C148.987081,150.086104 147.884533,146.720545 147.884533,146.720545 L89.1311362,165.735347 Z" id="路径" fill="#064A37" fill-rule="nonzero"></path>
                            <path d="M94.5970196,165.640444 C94.4601597,168.123299 94.1596875,170.594347 93.6975721,173.037397 C93.625036,173.401241 93.5488731,173.765086 93.4618298,174.092545 C93.2714874,174.926483 93.0056266,175.741239 92.6675596,176.526663 C92.51482,176.874771 92.325131,177.205352 92.1017781,177.512681 C91.9789664,177.68191 91.8351531,177.834743 91.6738151,177.967486 C90.4552088,178.93895 64.1960181,172.204194 56.108244,169.089687 C48.7748453,166.277172 37.2488605,161.921956 36.7773759,159.800745 C36.6799301,159.27799 36.6494601,158.744887 36.6867058,158.214384 C36.6867058,157.85054 36.7374811,157.432119 36.7882563,157.01006 C36.8752996,156.282371 37.0131182,155.46736 37.1763244,154.652349 C37.2488605,154.288505 37.3286502,153.90283 37.4156935,153.52807 C38.1845761,150.086104 39.2871246,146.720545 39.2871246,146.720545 L94.5970196,165.640444 Z" id="路径" fill="#064A37" fill-rule="nonzero"></path>
                            <path d="M37.7479563,154.519984 C37.7479563,154.519984 44.8050738,159.232454 57.3243382,163.310964 C63.3170552,165.263264 75.0829685,168.272787 92.6220783,172.339534" id="line" stroke="#01413E" stroke-width="1.00994036" stroke-linecap="round" stroke-linejoin="round" fill-rule="nonzero"></path>
                            <path d="M37.1944584,157.312216 C37.1944584,157.312216 44.8050738,162.262276 57.3243382,166.340785 C63.3170552,168.293085 75.0829685,171.302608 92.6220783,175.369355" id="line备份" stroke="#01413E" stroke-width="1.00994036" stroke-linecap="round" stroke-linejoin="round" fill-rule="nonzero"></path>
                            <path d="M92.6220783,154.20089 C92.6220783,154.20089 100.50665,159.232454 113.025915,163.310964 C119.018632,165.263264 131.130284,168.272787 149.36087,172.339534" id="line" stroke="#01413E" stroke-width="1.00994036" stroke-linecap="round" stroke-linejoin="round" fill-rule="nonzero" transform="translate(120.991474, 163.270212) scale(-1, 1) translate(-120.991474, -163.270212) "></path>
                            <path d="M92.6220783,157.217732 C92.6220783,157.217732 101.047799,162.262276 113.567063,166.340785 C119.55978,168.293085 131.671432,171.302608 149.902018,175.369355" id="line备份" stroke="#01413E" stroke-width="1.00994036" stroke-linecap="round" stroke-linejoin="round" fill-rule="nonzero" transform="translate(121.262048, 166.293544) scale(-1, 1) translate(-121.262048, -166.293544) "></path>
                            <g id="编组-32" transform="translate(0.000000, 6.772711)">
                                <mask id="mask-6" fill="white">
                                    <use xlink:href="#path-5"></use>
                                </mask>
                                <use id="形状结合" fill="#024C37" fill-rule="nonzero" xlink:href="#path-5"></use>
                                <path d="M7.13840009,82.8303009 L41.8842685,99.6679415 L44.8814167,100.809059 C64.6982246,104.095699 80.3858219,105.739019 91.9442086,105.739019 C103.502595,105.739019 121.416943,104.095699 145.68725,100.809059 L145.687067,94.5354176 L191.025276,73.8873484 L150.00984,8.88136463 L105.273206,-6.77271092 L78.2235939,-6.77271092 L31.9086798,19.0899003 L7.13840009,82.8303009 Z" id="路径-10" fill="#EFB31C" fill-rule="nonzero" mask="url(#mask-6)"></path>
                                <polygon id="路径-11" fill="#DDE3E9" fill-rule="nonzero" mask="url(#mask-6)" points="20.6203275 53.2085288 49.2778625 69.0660646 49.8693606 60.4428301 24.1171478 45.651087"></polygon>
                                <polygon id="路径-11备份" fill="#DDE3E9" fill-rule="nonzero" mask="url(#mask-6)" transform="translate(154.094307, 59.834159) scale(-1, 1) translate(-154.094307, -59.834159) " points="139.578013 54.6185477 165.287197 73.8873484 168.610601 66.7354908 142.420634 45.7809688"></polygon>
                                <path d="M9.21317127,84.185817 L41.8842685,99.6679415 L44.8814167,100.809059 C65.012445,104.095699 80.7000423,105.739019 91.9442086,105.739019 C103.188375,105.739019 121.256442,104.095699 146.14841,100.809059 L146.14841,95.1134599 L147.823784,94.3593419 L182.9252,78.2772168 L179.661874,70.3752621 L145.381196,87.0785837 L146.36207,91.5667977 C122.619723,94.5966156 105.206068,96.1115245 94.1211065,96.1115245 C83.0361448,96.1115245 66.8964711,94.5966156 45.7020853,91.5667977 L44.0397843,93.7518086 L11.3803366,76.487086 L9.21317127,84.185817 Z" id="路径-12" fill="#DDE3E9" fill-rule="nonzero" mask="url(#mask-6)"></path>
                            </g>
                            <path d="M86.303521,27.2783615 C87.8567324,27.8616367 88.888916,28.2584746 89.4000717,28.4688754 C90.1668052,28.7844767 92.607514,28.045359 93.4618298,28.4688754 C94.1396995,28.1885922 93.6054671,28.6346988 94.8235933,28.2023755 C95.3899065,28.0013861 96.3837621,27.6036035 97.8051603,27.0090275 L97.8051603,178.500081 L86.7138535,178.500081 L86.303521,27.2783615 Z" id="矩形" fill="#000000" fill-rule="nonzero" opacity="0.0823734828"></path>
                            <path d="M94.7620049,29.9996944 L105.971014,24.6668567 L104.130552,21.5522927 L119.083645,21.2079658 C116.933414,16.5499483 114.998405,12.848657 113.278619,10.1040917 C111.558832,7.35952637 108.500331,3.99149581 104.103117,2.27373675e-13 C104.609039,6.74283607 104.035228,11.9625224 102.381683,15.659059 C100.728138,19.3555957 98.1882453,24.1358075 94.7620049,29.9996944 Z" id="路径-8" fill="#064A37" fill-rule="nonzero"></path>
                            <path d="M64.8907532,29.9996944 L80.0038184,26.4260086 L78.1633566,23.3114446 L95.2396886,24.3145532 C92.9192296,17.5854775 90.8991069,12.848657 89.1793204,10.1040917 C87.4595338,7.35952637 84.1337203,3.99149581 79.2018796,0 C78.997163,7.91560401 78.0680323,13.7216743 76.4144874,17.4182109 C74.7609426,21.1147476 70.9196978,25.3085754 64.8907532,29.9996944 Z" id="路径-8备份-2" fill="#064A37" fill-rule="nonzero" transform="translate(80.065221, 14.999847) scale(-1, 1) translate(-80.065221, -14.999847) "></path>
                            <path d="M143.014355,78.8249853 C141.738522,76.8721607 140.569792,73.8017543 139.492801,71.7197075 C138.83431,67.2700409 138.986933,62.9426167 139.157768,58.4339272 L139.57709,48 C140.07717,51.003607 140.946875,60.9489562 141.195362,62.8803148 C141.471804,64.9723467 142.178817,73.3129074 143.014355,78.8249853 Z" id="路径" fill="#5F5F5F" fill-rule="nonzero" opacity="0.337575277"></path>
                            <path d="M43.381787,101.062915 C44.995715,96.569439 47.5852534,87.4624184 48.6515339,83.9294911 C48.6080123,84.1987358 48.5681174,84.4643421 48.5245958,84.7335868 C48.4411793,85.2647994 48.354136,85.7923735 48.2707195,86.3199476 L48.7567113,83.7730381 L51.3897714,44.2559181 C51.3897714,44.2559181 43.0952694,81.5499499 42.9792117,94.2190054 C42.9683312,95.5033755 43.1605519,98.2867837 43.381787,101.062915 Z" id="路径" fill="#1D1D1D" fill-rule="nonzero" opacity="0.166027977"></path>
                            <path d="M52.4730746,79.3576847 C52.4736765,82.4225087 52.0782669,84.7727559 53.6978654,85.4123629 C57.7998247,87.1849046 62.1183724,88.350228 66.5283687,88.8745653 C69.2274901,88.8750962 78.3679349,85.9248859 80.1669135,83.7065329 C80.9584601,82.7101508 80.8315631,77.9342653 79.5899451,77.8212055 C76.9987442,77.5950646 52.4728235,78.0791078 52.4730746,79.3576847 Z" id="路径" fill="#DE8635" fill-rule="nonzero" opacity="0.220948719" transform="translate(66.547386, 83.321050) rotate(7.000000) translate(-66.547386, -83.321050) "></path>
                            <path d="M131.036199,79.3588297 C131.035853,82.4237034 131.432868,84.7740217 129.825617,85.4135024 C125.737855,87.1773126 121.434975,88.3421435 117.040027,88.8746839 C114.331299,88.8749905 105.158072,85.9239723 103.352503,83.7054338 C102.558056,82.7089696 102.666944,77.9330192 103.912972,77.8200608 C106.423086,77.5941419 131.054402,78.0802301 131.036199,79.3588297 Z" id="路径" fill="#DE8635" fill-rule="nonzero" opacity="0.220948719" transform="translate(116.963105, 83.320650) rotate(-4.000000) translate(-116.963105, -83.320650) "></path>
                            <path d="M144.16111,137.088244 C144.162996,140.427102 144.619107,142.987833 142.780171,143.683244 C138.103263,145.601588 133.179716,146.867241 128.150332,147.444009 C125.050339,147.44226 114.54988,144.220383 112.481853,141.80213 C111.571909,140.715976 111.692971,135.513162 113.118898,135.391064 C115.991419,135.146879 144.18099,135.695357 144.16111,137.088244 Z" id="路径备份-7" fill="#013829" fill-rule="nonzero" transform="translate(128.056894, 141.389422) rotate(68.000000) translate(-128.056894, -141.389422) "></path>
                            <path d="M76.5995373,137.088244 C76.6014228,140.427102 77.0575344,142.987833 75.2185985,143.683244 C70.5416902,145.601588 65.6181435,146.867241 60.5887598,147.444009 C57.4887667,147.44226 46.9883076,144.220383 44.9202806,141.80213 C44.0103362,140.715976 44.1313978,135.513162 45.5573252,135.391064 C48.4298466,135.146879 76.6194173,135.695357 76.5995373,137.088244 Z" id="路径备份-8" fill="#013829" fill-rule="nonzero" transform="translate(60.495322, 141.389422) scale(-1, 1) rotate(68.000000) translate(-60.495322, -141.389422) "></path>
                        </g>
                    </g>
                </g>
            </g>
        </g>
    </g>
</svg>